%
M48
M72
T01C0.0236
T02C0.0276
T03C0.0315
T04C0.0320
T05C0.0400
T06C0.0748
%
T01
X2681Y9181
X3181Y11181
X4681Y16181
X9181Y14681
X10681Y10681
X11181Y9681
X15181Y10681
X10181Y3181
T02
X14056Y5681
X14056Y6681
X8181Y16181
X8181Y17181
T03
X2351Y16701
X2681Y16081
X3351Y16081
X3041Y16701
X1981Y16081
X13181Y18681
X15181Y18681
X16681Y18681
X18681Y18681
T04
X7681Y18681
X8681Y18681
X9681Y17181
X9681Y16181
X11181Y16181
X11181Y17681
X11181Y18681
X12181Y14681
X12181Y13681
X12181Y12681
X12181Y11681
X12181Y10681
X12181Y9681
X12181Y8681
X12181Y7681
X12181Y6681
X12181Y5681
X12181Y4681
X12181Y3681
X12181Y2681
X12181Y1681
X14181Y1181
X15181Y1181
X15681Y3181
X17056Y3181
X17056Y4181
X17056Y5181
X15681Y8181
X14181Y8681
X14181Y9681
X17056Y10181
X17181Y12181
X18681Y12181
X16181Y16181
X17181Y17181
X18681Y17181
X13681Y14681
X13681Y13681
X9181Y13681
X9181Y12681
X9181Y11681
X9181Y10681
X9181Y9681
X9181Y8681
X9181Y7681
X9181Y6681
X9181Y5681
X9181Y4681
X9181Y3681
X9181Y2681
X9181Y1681
X7306Y2931
X6306Y2931
X9181Y14681
T05
X681Y14181
X681Y13181
X681Y12181
X681Y11181
X681Y9181
X681Y8181
X681Y7181
X681Y6181
X681Y4181
X681Y3181
X681Y2181
X681Y1181
X3181Y1181
X4181Y1181
X5181Y1181
X6181Y1181
X7181Y1181
X6681Y5181
X6681Y6181
X6681Y7181
X6181Y16181
X6181Y17181
X6181Y18181
X19181Y9181
X19181Y8181
X19181Y7181
X19181Y6181
X19181Y4181
X19181Y3181
X19181Y2181
X19181Y1181
T06
X1244Y18181
X4118Y18181
M30
