G75*
G70*
%OFA0B0*%
%FSLAX24Y24*%
%IPPOS*%
%LPD*%
%AMOC8*
5,1,8,0,0,1.08239X$1,22.5*
%
%ADD10C,0.0000*%
%ADD11R,0.0740X0.0740*%
%ADD12C,0.0740*%
%ADD13OC8,0.0520*%
%ADD14R,0.0650X0.0650*%
%ADD15C,0.0650*%
%ADD16C,0.0600*%
%ADD17C,0.0515*%
%ADD18C,0.1122*%
%ADD19C,0.0520*%
%ADD20C,0.0160*%
%ADD21C,0.0356*%
D10*
X000181Y000181D02*
X000181Y019866D01*
X019866Y019866D01*
X019866Y000181D01*
X000181Y000181D01*
D11*
X000681Y004181D03*
X000681Y009181D03*
X000681Y014181D03*
X006681Y007181D03*
X007181Y001181D03*
X019181Y004181D03*
X019181Y009181D03*
D12*
X019181Y008181D03*
X019181Y007181D03*
X019181Y006181D03*
X019181Y003181D03*
X019181Y002181D03*
X019181Y001181D03*
X006681Y005181D03*
X006681Y006181D03*
X006181Y001181D03*
X005181Y001181D03*
X004181Y001181D03*
X003181Y001181D03*
X000681Y001181D03*
X000681Y002181D03*
X000681Y003181D03*
X000681Y006181D03*
X000681Y007181D03*
X000681Y008181D03*
X000681Y011181D03*
X000681Y012181D03*
X000681Y013181D03*
D13*
X007681Y018681D03*
X008681Y018681D03*
X009681Y017181D03*
X009681Y016181D03*
X011181Y016181D03*
X011181Y017681D03*
X011181Y018681D03*
X013681Y014681D03*
X013681Y013681D03*
X016181Y016181D03*
X017181Y017181D03*
X018681Y017181D03*
X018681Y012181D03*
X017181Y012181D03*
X017056Y010181D03*
X015681Y008181D03*
X014181Y008681D03*
X014181Y009681D03*
X017056Y005181D03*
X017056Y004181D03*
X017056Y003181D03*
X015681Y003181D03*
X015181Y001181D03*
X014181Y001181D03*
X007306Y002931D03*
X006306Y002931D03*
D14*
X014056Y006681D03*
X008181Y017181D03*
D15*
X008181Y016181D03*
X014056Y005681D03*
D16*
X006481Y016181D02*
X005881Y016181D01*
X005881Y017181D02*
X006481Y017181D01*
X006481Y018181D02*
X005881Y018181D01*
D17*
X003351Y016081D03*
X002681Y016081D03*
X002351Y016701D03*
X001981Y016081D03*
X003041Y016701D03*
X013181Y018681D03*
X015181Y018681D03*
X016681Y018681D03*
X018681Y018681D03*
D18*
X004118Y018181D03*
X001244Y018181D03*
D19*
X008921Y014681D02*
X009441Y014681D01*
X009441Y013681D02*
X008921Y013681D01*
X008921Y012681D02*
X009441Y012681D01*
X009441Y011681D02*
X008921Y011681D01*
X008921Y010681D02*
X009441Y010681D01*
X009441Y009681D02*
X008921Y009681D01*
X008921Y008681D02*
X009441Y008681D01*
X009441Y007681D02*
X008921Y007681D01*
X008921Y006681D02*
X009441Y006681D01*
X009441Y005681D02*
X008921Y005681D01*
X008921Y004681D02*
X009441Y004681D01*
X009441Y003681D02*
X008921Y003681D01*
X008921Y002681D02*
X009441Y002681D01*
X009441Y001681D02*
X008921Y001681D01*
X011921Y001681D02*
X012441Y001681D01*
X012441Y002681D02*
X011921Y002681D01*
X011921Y003681D02*
X012441Y003681D01*
X012441Y004681D02*
X011921Y004681D01*
X011921Y005681D02*
X012441Y005681D01*
X012441Y006681D02*
X011921Y006681D01*
X011921Y007681D02*
X012441Y007681D01*
X012441Y008681D02*
X011921Y008681D01*
X011921Y009681D02*
X012441Y009681D01*
X012441Y010681D02*
X011921Y010681D01*
X011921Y011681D02*
X012441Y011681D01*
X012441Y012681D02*
X011921Y012681D01*
X011921Y013681D02*
X012441Y013681D01*
X012441Y014681D02*
X011921Y014681D01*
D20*
X011515Y014901D02*
X011461Y014773D01*
X011461Y014590D01*
X011531Y014421D01*
X011661Y014291D01*
X011830Y014221D01*
X012533Y014221D01*
X012702Y014291D01*
X012831Y014421D01*
X012901Y014590D01*
X012901Y014773D01*
X012831Y014942D01*
X012702Y015071D01*
X012533Y015141D01*
X012037Y015141D01*
X015120Y018224D01*
X015272Y018224D01*
X015441Y018294D01*
X015569Y018422D01*
X015639Y018590D01*
X015639Y018772D01*
X015569Y018941D01*
X015441Y019069D01*
X015272Y019139D01*
X015090Y019139D01*
X014922Y019069D01*
X014794Y018941D01*
X014724Y018772D01*
X014724Y018620D01*
X011565Y015461D01*
X011237Y015461D01*
X011126Y015461D01*
X011023Y015419D01*
X010565Y014961D01*
X009812Y014961D01*
X009702Y015071D01*
X009533Y015141D01*
X008830Y015141D01*
X008661Y015071D01*
X008531Y014942D01*
X008461Y014773D01*
X008461Y014590D01*
X008531Y014421D01*
X008661Y014291D01*
X008830Y014221D01*
X009533Y014221D01*
X009702Y014291D01*
X009812Y014401D01*
X010401Y014401D01*
X010401Y010936D01*
X010361Y010896D01*
X010303Y010757D01*
X010303Y010606D01*
X010361Y010467D01*
X010467Y010361D01*
X010606Y010303D01*
X010757Y010303D01*
X010896Y010361D01*
X011002Y010467D01*
X011059Y010606D01*
X011059Y010757D01*
X011002Y010896D01*
X010961Y010936D01*
X010961Y014565D01*
X011297Y014901D01*
X011515Y014901D01*
X011461Y014767D02*
X011163Y014767D01*
X011005Y014609D02*
X011461Y014609D01*
X011519Y014450D02*
X010961Y014450D01*
X010961Y014292D02*
X011661Y014292D01*
X011752Y014089D02*
X011691Y014058D01*
X011635Y014017D01*
X011586Y013968D01*
X011545Y013912D01*
X011514Y013850D01*
X011492Y013784D01*
X011481Y013716D01*
X011481Y013682D01*
X012181Y013682D01*
X012181Y014121D01*
X011887Y014121D01*
X011818Y014111D01*
X011752Y014089D01*
X011592Y013975D02*
X010961Y013975D01*
X010961Y014133D02*
X018237Y014133D01*
X018079Y013975D02*
X014010Y013975D01*
X014121Y013864D02*
X013864Y014121D01*
X013682Y014121D01*
X013682Y013682D01*
X013681Y013682D01*
X013681Y014121D01*
X013499Y014121D01*
X013241Y013864D01*
X013241Y013682D01*
X013681Y013682D01*
X013681Y013681D01*
X013241Y013681D01*
X013241Y013499D01*
X013499Y013241D01*
X013681Y013241D01*
X013681Y013681D01*
X013682Y013681D01*
X013682Y013682D01*
X014121Y013682D01*
X014121Y013864D01*
X014121Y013816D02*
X015920Y013816D01*
X015944Y013840D02*
X015023Y012919D01*
X014944Y012840D01*
X014901Y012737D01*
X014901Y010936D01*
X014861Y010896D01*
X014803Y010757D01*
X014803Y010606D01*
X014861Y010467D01*
X014967Y010361D01*
X015106Y010303D01*
X015257Y010303D01*
X015396Y010361D01*
X015502Y010467D01*
X015559Y010606D01*
X015559Y010757D01*
X015502Y010896D01*
X015461Y010936D01*
X015461Y012565D01*
X016297Y013401D01*
X018126Y013401D01*
X018237Y013401D01*
X018340Y013444D01*
X018840Y013944D01*
X018919Y014023D01*
X018961Y014126D01*
X018961Y016811D01*
X019141Y016991D01*
X019141Y017372D01*
X018872Y017641D01*
X018491Y017641D01*
X018221Y017372D01*
X018221Y016991D01*
X018401Y016811D01*
X018401Y014297D01*
X018065Y013961D01*
X016126Y013961D01*
X016023Y013919D01*
X015944Y013840D01*
X015762Y013658D02*
X014121Y013658D01*
X014121Y013681D02*
X013682Y013681D01*
X013682Y013241D01*
X013864Y013241D01*
X014121Y013499D01*
X015603Y013499D01*
X015445Y013341D02*
X013963Y013341D01*
X014121Y013499D02*
X014121Y013681D01*
X013682Y013658D02*
X013681Y013658D01*
X013681Y013816D02*
X013682Y013816D01*
X013681Y013975D02*
X013682Y013975D01*
X013872Y014221D02*
X013491Y014221D01*
X013221Y014491D01*
X013221Y014872D01*
X013491Y015141D01*
X013872Y015141D01*
X014141Y014872D01*
X014141Y014491D01*
X013872Y014221D01*
X013942Y014292D02*
X018396Y014292D01*
X018401Y014450D02*
X014101Y014450D01*
X014141Y014609D02*
X018401Y014609D01*
X018401Y014767D02*
X014141Y014767D01*
X014087Y014926D02*
X018401Y014926D01*
X018401Y015084D02*
X013929Y015084D01*
X013434Y015084D02*
X012670Y015084D01*
X012838Y014926D02*
X013275Y014926D01*
X013221Y014767D02*
X012901Y014767D01*
X012901Y014609D02*
X013221Y014609D01*
X013262Y014450D02*
X012844Y014450D01*
X012702Y014292D02*
X013421Y014292D01*
X013352Y013975D02*
X012770Y013975D01*
X012777Y013968D02*
X012728Y014017D01*
X012672Y014058D01*
X012610Y014089D01*
X012544Y014111D01*
X012476Y014121D01*
X012182Y014121D01*
X012182Y013682D01*
X012181Y013682D01*
X012181Y013681D01*
X012182Y013681D01*
X012182Y013682D01*
X012881Y013682D01*
X012881Y013716D01*
X012871Y013784D01*
X012849Y013850D01*
X012818Y013912D01*
X012777Y013968D01*
X012860Y013816D02*
X013241Y013816D01*
X013241Y013658D02*
X012881Y013658D01*
X012881Y013647D02*
X012871Y013578D01*
X012849Y013512D01*
X012818Y013451D01*
X012777Y013395D01*
X012728Y013346D01*
X012672Y013305D01*
X012610Y013274D01*
X012544Y013252D01*
X012476Y013241D01*
X012182Y013241D01*
X012182Y013681D01*
X012881Y013681D01*
X012881Y013647D01*
X012842Y013499D02*
X013242Y013499D01*
X013400Y013341D02*
X012721Y013341D01*
X012702Y013071D02*
X012533Y013141D01*
X011830Y013141D01*
X011661Y013071D01*
X011531Y012942D01*
X011461Y012773D01*
X011461Y012590D01*
X011531Y012421D01*
X011661Y012291D01*
X011830Y012221D01*
X012533Y012221D01*
X012702Y012291D01*
X012831Y012421D01*
X012901Y012590D01*
X012901Y012773D01*
X012831Y012942D01*
X012702Y013071D01*
X012750Y013023D02*
X015127Y013023D01*
X014969Y012865D02*
X012863Y012865D01*
X012901Y012706D02*
X014901Y012706D01*
X014901Y012548D02*
X012884Y012548D01*
X012800Y012389D02*
X014901Y012389D01*
X014901Y012231D02*
X012555Y012231D01*
X012533Y012141D02*
X012702Y012071D01*
X012831Y011942D01*
X012901Y011773D01*
X012901Y011590D01*
X012831Y011421D01*
X012702Y011291D01*
X012533Y011221D01*
X011830Y011221D01*
X011661Y011291D01*
X011531Y011421D01*
X011461Y011590D01*
X011461Y011773D01*
X011531Y011942D01*
X011661Y012071D01*
X011830Y012141D01*
X012533Y012141D01*
X012700Y012072D02*
X014901Y012072D01*
X014901Y011914D02*
X012843Y011914D01*
X012901Y011755D02*
X014901Y011755D01*
X014901Y011597D02*
X012901Y011597D01*
X012838Y011438D02*
X014901Y011438D01*
X014901Y011279D02*
X012673Y011279D01*
X012582Y011121D02*
X014901Y011121D01*
X014901Y010962D02*
X012811Y010962D01*
X012831Y010942D02*
X012702Y011071D01*
X012533Y011141D01*
X011830Y011141D01*
X011661Y011071D01*
X011531Y010942D01*
X011461Y010773D01*
X011461Y010590D01*
X011531Y010421D01*
X011661Y010291D01*
X011830Y010221D01*
X012533Y010221D01*
X012702Y010291D01*
X012831Y010421D01*
X012901Y010590D01*
X012901Y010773D01*
X012831Y010942D01*
X012889Y010804D02*
X014823Y010804D01*
X014803Y010645D02*
X012901Y010645D01*
X012859Y010487D02*
X014853Y010487D01*
X015046Y010328D02*
X012739Y010328D01*
X012702Y010071D02*
X012533Y010141D01*
X011830Y010141D01*
X011661Y010071D01*
X011531Y009942D01*
X011507Y009883D01*
X011502Y009896D01*
X011396Y010002D01*
X011257Y010059D01*
X011106Y010059D01*
X010967Y010002D01*
X010927Y009961D01*
X010297Y009961D01*
X009919Y010340D01*
X009840Y010419D01*
X009832Y010422D01*
X009901Y010590D01*
X009901Y010773D01*
X009831Y010942D01*
X009702Y011071D01*
X009533Y011141D01*
X008830Y011141D01*
X008661Y011071D01*
X008531Y010942D01*
X008461Y010773D01*
X008461Y010590D01*
X008515Y010461D01*
X007297Y010461D01*
X004961Y012797D01*
X004961Y015927D01*
X005002Y015967D01*
X005059Y016106D01*
X005059Y016257D01*
X005002Y016396D01*
X004896Y016502D01*
X004757Y016559D01*
X004606Y016559D01*
X004467Y016502D01*
X004362Y016397D01*
X003840Y016919D01*
X003737Y016961D01*
X003626Y016961D01*
X003428Y016961D01*
X003301Y017089D01*
X003132Y017159D01*
X002950Y017159D01*
X002782Y017089D01*
X002696Y017003D01*
X002611Y017089D01*
X002442Y017159D01*
X002260Y017159D01*
X002092Y017089D01*
X001964Y016961D01*
X001894Y016792D01*
X001894Y016610D01*
X001933Y016517D01*
X001879Y016508D01*
X001813Y016487D01*
X001752Y016456D01*
X001696Y016415D01*
X001648Y016366D01*
X001607Y016311D01*
X001576Y016249D01*
X001555Y016184D01*
X001544Y016116D01*
X001544Y016082D01*
X001981Y016082D01*
X001981Y016081D01*
X001982Y016081D01*
X001982Y015644D01*
X002016Y015644D01*
X002084Y015655D01*
X002149Y015676D01*
X002211Y015707D01*
X002266Y015748D01*
X002315Y015796D01*
X002317Y015799D01*
X002401Y015714D01*
X002401Y012626D01*
X002444Y012523D01*
X002523Y012444D01*
X007023Y007944D01*
X007126Y007901D01*
X007237Y007901D01*
X008540Y007901D01*
X008514Y007850D01*
X008492Y007784D01*
X008481Y007716D01*
X008481Y007682D01*
X009181Y007682D01*
X009181Y007681D01*
X009182Y007681D01*
X009182Y007241D01*
X009476Y007241D01*
X009544Y007252D01*
X009610Y007274D01*
X009672Y007305D01*
X009728Y007346D01*
X009777Y007395D01*
X009818Y007451D01*
X009849Y007512D01*
X009871Y007578D01*
X009873Y007594D01*
X010023Y007444D01*
X010126Y007401D01*
X010237Y007401D01*
X011551Y007401D01*
X011661Y007291D01*
X011830Y007221D01*
X012533Y007221D01*
X012702Y007291D01*
X012831Y007421D01*
X012901Y007590D01*
X012901Y007773D01*
X012831Y007942D01*
X012702Y008071D01*
X012533Y008141D01*
X011830Y008141D01*
X011661Y008071D01*
X011551Y007961D01*
X010297Y007961D01*
X009919Y008340D01*
X009840Y008419D01*
X009832Y008422D01*
X009894Y008573D01*
X010023Y008444D01*
X010126Y008401D01*
X010237Y008401D01*
X011551Y008401D01*
X011661Y008291D01*
X011830Y008221D01*
X012533Y008221D01*
X012702Y008291D01*
X012831Y008421D01*
X012901Y008590D01*
X012901Y008773D01*
X012831Y008942D01*
X012702Y009071D01*
X012533Y009141D01*
X011830Y009141D01*
X011661Y009071D01*
X011551Y008961D01*
X010297Y008961D01*
X009919Y009340D01*
X009840Y009419D01*
X009832Y009422D01*
X009894Y009573D01*
X009944Y009523D01*
X009944Y009523D01*
X010023Y009444D01*
X010126Y009401D01*
X010927Y009401D01*
X010967Y009361D01*
X011106Y009303D01*
X011257Y009303D01*
X011396Y009361D01*
X011502Y009467D01*
X011507Y009480D01*
X011531Y009421D01*
X011661Y009291D01*
X011830Y009221D01*
X012533Y009221D01*
X012683Y009284D01*
X012901Y009065D01*
X012901Y003237D01*
X012901Y003126D01*
X012944Y003023D01*
X013901Y002065D01*
X013901Y001552D01*
X013721Y001372D01*
X013721Y001117D01*
X013565Y000961D01*
X011297Y000961D01*
X010461Y001797D01*
X010461Y002927D01*
X010502Y002967D01*
X010559Y003106D01*
X010559Y003257D01*
X010502Y003396D01*
X010396Y003502D01*
X010257Y003559D01*
X010106Y003559D01*
X009967Y003502D01*
X009861Y003396D01*
X009803Y003257D01*
X009803Y003106D01*
X009861Y002967D01*
X009901Y002927D01*
X009901Y001626D01*
X009944Y001523D01*
X010023Y001444D01*
X011023Y000444D01*
X011126Y000401D01*
X011237Y000401D01*
X013737Y000401D01*
X013840Y000444D01*
X013919Y000523D01*
X014117Y000721D01*
X014372Y000721D01*
X014641Y000991D01*
X014641Y001372D01*
X014461Y001552D01*
X014461Y002237D01*
X014419Y002340D01*
X014340Y002419D01*
X013461Y003297D01*
X013461Y009237D01*
X013419Y009340D01*
X013340Y009419D01*
X012842Y009917D01*
X012831Y009942D01*
X012702Y010071D01*
X012762Y010011D02*
X013889Y010011D01*
X013999Y010121D02*
X013741Y009864D01*
X013741Y009682D01*
X014181Y009682D01*
X014181Y010121D01*
X013999Y010121D01*
X014182Y010121D02*
X014182Y009682D01*
X014181Y009682D01*
X014181Y009681D01*
X013741Y009681D01*
X013741Y009499D01*
X013999Y009241D01*
X014181Y009241D01*
X014181Y009681D01*
X014182Y009681D01*
X014182Y009682D01*
X014621Y009682D01*
X014621Y009864D01*
X014364Y010121D01*
X014182Y010121D01*
X014181Y010011D02*
X014182Y010011D01*
X014181Y009853D02*
X014182Y009853D01*
X014181Y009694D02*
X014182Y009694D01*
X014182Y009681D02*
X014621Y009681D01*
X014621Y009499D01*
X014364Y009241D01*
X014182Y009241D01*
X014182Y009681D01*
X014181Y009535D02*
X014182Y009535D01*
X014181Y009377D02*
X014182Y009377D01*
X014372Y009141D02*
X013991Y009141D01*
X013721Y008872D01*
X013721Y008491D01*
X013991Y008221D01*
X014372Y008221D01*
X014641Y008491D01*
X014641Y008872D01*
X014372Y009141D01*
X014453Y009060D02*
X018611Y009060D01*
X018611Y009218D02*
X013461Y009218D01*
X013461Y009060D02*
X013909Y009060D01*
X013751Y008901D02*
X013461Y008901D01*
X013461Y008743D02*
X013721Y008743D01*
X013721Y008584D02*
X013461Y008584D01*
X013461Y008426D02*
X013787Y008426D01*
X013945Y008267D02*
X013461Y008267D01*
X013461Y008109D02*
X015221Y008109D01*
X015221Y007991D02*
X015491Y007721D01*
X015872Y007721D01*
X016141Y007991D01*
X016141Y008372D01*
X015872Y008641D01*
X015491Y008641D01*
X015221Y008372D01*
X015221Y007991D01*
X015262Y007950D02*
X013461Y007950D01*
X013461Y007791D02*
X015421Y007791D01*
X015221Y008267D02*
X014418Y008267D01*
X014576Y008426D02*
X015275Y008426D01*
X015434Y008584D02*
X014641Y008584D01*
X014641Y008743D02*
X018611Y008743D01*
X018611Y008729D02*
X018729Y008611D01*
X018805Y008611D01*
X018698Y008504D01*
X018611Y008295D01*
X018611Y008068D01*
X018698Y007859D01*
X018859Y007698D01*
X018899Y007681D01*
X018859Y007665D01*
X018698Y007504D01*
X018611Y007295D01*
X018611Y007068D01*
X018698Y006859D01*
X018859Y006698D01*
X018899Y006681D01*
X018859Y006665D01*
X018698Y006504D01*
X018611Y006295D01*
X018611Y006068D01*
X018698Y005859D01*
X018859Y005698D01*
X019068Y005611D01*
X019295Y005611D01*
X019504Y005698D01*
X019665Y005859D01*
X019666Y005863D01*
X019666Y004719D01*
X019634Y004751D01*
X018729Y004751D01*
X018611Y004634D01*
X018611Y003729D01*
X018729Y003611D01*
X018805Y003611D01*
X018698Y003504D01*
X018611Y003295D01*
X018611Y003068D01*
X018698Y002859D01*
X018859Y002698D01*
X018928Y002669D01*
X018893Y002652D01*
X018823Y002601D01*
X018762Y002540D01*
X018711Y002470D01*
X018672Y002393D01*
X018645Y002310D01*
X018631Y002225D01*
X018631Y002201D01*
X019161Y002201D01*
X019161Y002161D01*
X018631Y002161D01*
X018631Y002138D01*
X018645Y002053D01*
X018672Y001970D01*
X018711Y001893D01*
X018762Y001823D01*
X018823Y001762D01*
X018893Y001711D01*
X018928Y001693D01*
X018859Y001665D01*
X018698Y001504D01*
X018611Y001295D01*
X018611Y001068D01*
X018698Y000859D01*
X018859Y000698D01*
X019068Y000611D01*
X019295Y000611D01*
X019504Y000698D01*
X019665Y000859D01*
X019666Y000863D01*
X019666Y000381D01*
X005777Y000381D01*
X006025Y000629D01*
X006068Y000611D01*
X006295Y000611D01*
X006504Y000698D01*
X006611Y000805D01*
X006611Y000729D01*
X006729Y000611D01*
X007634Y000611D01*
X007751Y000729D01*
X007751Y001634D01*
X007634Y001751D01*
X006729Y001751D01*
X006611Y001634D01*
X006611Y001557D01*
X006532Y001636D01*
X007367Y002471D01*
X007497Y002471D01*
X007766Y002741D01*
X007766Y003122D01*
X007497Y003391D01*
X007116Y003391D01*
X006846Y003122D01*
X006846Y002742D01*
X006023Y001919D01*
X005944Y001840D01*
X005901Y001737D01*
X005901Y001682D01*
X005859Y001665D01*
X005698Y001504D01*
X005669Y001435D01*
X005652Y001470D01*
X005601Y001540D01*
X005540Y001601D01*
X005470Y001652D01*
X005393Y001691D01*
X005310Y001718D01*
X005225Y001731D01*
X005201Y001731D01*
X005201Y001202D01*
X005161Y001202D01*
X005161Y001731D01*
X005138Y001731D01*
X005053Y001718D01*
X004970Y001691D01*
X004893Y001652D01*
X004823Y001601D01*
X004762Y001540D01*
X004711Y001470D01*
X004693Y001435D01*
X004665Y001504D01*
X004504Y001665D01*
X004461Y001682D01*
X004461Y010237D01*
X004419Y010340D01*
X004340Y010419D01*
X003559Y011199D01*
X003559Y011257D01*
X003502Y011396D01*
X003396Y011502D01*
X003257Y011559D01*
X003106Y011559D01*
X002967Y011502D01*
X002861Y011396D01*
X002803Y011257D01*
X002803Y011106D01*
X002861Y010967D01*
X002967Y010861D01*
X003106Y010803D01*
X003164Y010803D01*
X003901Y010065D01*
X003901Y001682D01*
X003859Y001665D01*
X003698Y001504D01*
X003681Y001464D01*
X003665Y001504D01*
X003504Y001665D01*
X003461Y001682D01*
X003461Y007737D01*
X003419Y007840D01*
X003340Y007919D01*
X002961Y008297D01*
X002961Y008927D01*
X003002Y008967D01*
X003059Y009106D01*
X003059Y009257D01*
X003002Y009396D01*
X002896Y009502D01*
X002757Y009559D01*
X002606Y009559D01*
X002467Y009502D01*
X002361Y009396D01*
X002303Y009257D01*
X002303Y009106D01*
X002361Y008967D01*
X002401Y008927D01*
X002401Y008237D01*
X002401Y008126D01*
X002444Y008023D01*
X002901Y007565D01*
X002901Y001682D01*
X002859Y001665D01*
X002698Y001504D01*
X002611Y001295D01*
X002611Y001068D01*
X002698Y000859D01*
X002845Y000711D01*
X001547Y000711D01*
X001234Y001025D01*
X001251Y001068D01*
X001251Y001295D01*
X001165Y001504D01*
X001004Y001665D01*
X000935Y001693D01*
X000970Y001711D01*
X001040Y001762D01*
X001101Y001823D01*
X001152Y001893D01*
X001191Y001970D01*
X001218Y002053D01*
X001231Y002138D01*
X001231Y002161D01*
X000702Y002161D01*
X000702Y002201D01*
X001231Y002201D01*
X001231Y002225D01*
X001218Y002310D01*
X001191Y002393D01*
X001152Y002470D01*
X001101Y002540D01*
X001040Y002601D01*
X000970Y002652D01*
X000935Y002669D01*
X001004Y002698D01*
X001165Y002859D01*
X001251Y003068D01*
X001251Y003295D01*
X001165Y003504D01*
X001057Y003611D01*
X001134Y003611D01*
X001251Y003729D01*
X001251Y004634D01*
X001134Y004751D01*
X000381Y004751D01*
X000381Y005689D01*
X000568Y005611D01*
X000795Y005611D01*
X001004Y005698D01*
X001165Y005859D01*
X001251Y006068D01*
X001251Y006295D01*
X001165Y006504D01*
X001004Y006665D01*
X000964Y006681D01*
X001004Y006698D01*
X001165Y006859D01*
X001251Y007068D01*
X001251Y007295D01*
X001165Y007504D01*
X001004Y007665D01*
X000964Y007681D01*
X001004Y007698D01*
X001165Y007859D01*
X001251Y008068D01*
X001251Y008295D01*
X001165Y008504D01*
X001057Y008611D01*
X001134Y008611D01*
X001251Y008729D01*
X001251Y009634D01*
X001134Y009751D01*
X000381Y009751D01*
X000381Y010689D01*
X000568Y010611D01*
X000795Y010611D01*
X001004Y010698D01*
X001165Y010859D01*
X001251Y011068D01*
X001251Y011295D01*
X001165Y011504D01*
X001004Y011665D01*
X000964Y011681D01*
X001004Y011698D01*
X001165Y011859D01*
X001251Y012068D01*
X001251Y012295D01*
X001165Y012504D01*
X001004Y012665D01*
X000964Y012681D01*
X001004Y012698D01*
X001165Y012859D01*
X001251Y013068D01*
X001251Y013295D01*
X001165Y013504D01*
X001057Y013611D01*
X001134Y013611D01*
X001251Y013729D01*
X001251Y014634D01*
X001134Y014751D01*
X000381Y014751D01*
X000381Y019666D01*
X019666Y019666D01*
X019666Y009719D01*
X019634Y009751D01*
X019007Y009751D01*
X018340Y010419D01*
X018237Y010461D01*
X018126Y010461D01*
X017427Y010461D01*
X017247Y010641D01*
X016866Y010641D01*
X016596Y010372D01*
X016596Y009991D01*
X016866Y009721D01*
X017247Y009721D01*
X017427Y009901D01*
X018065Y009901D01*
X018611Y009355D01*
X018611Y008729D01*
X018611Y008901D02*
X014612Y008901D01*
X014499Y009377D02*
X018590Y009377D01*
X018431Y009535D02*
X014621Y009535D01*
X014621Y009694D02*
X018273Y009694D01*
X018114Y009853D02*
X017378Y009853D01*
X017056Y010181D02*
X018181Y010181D01*
X019181Y009181D01*
X018778Y008584D02*
X015929Y008584D01*
X016088Y008426D02*
X018666Y008426D01*
X018611Y008267D02*
X016141Y008267D01*
X016141Y008109D02*
X018611Y008109D01*
X018660Y007950D02*
X016101Y007950D01*
X015942Y007791D02*
X018765Y007791D01*
X018827Y007633D02*
X013461Y007633D01*
X013461Y007474D02*
X018686Y007474D01*
X018620Y007316D02*
X013461Y007316D01*
X013461Y007157D02*
X013599Y007157D01*
X013649Y007206D02*
X013531Y007089D01*
X013531Y006274D01*
X013649Y006156D01*
X013884Y006156D01*
X013863Y006149D01*
X013792Y006113D01*
X013727Y006067D01*
X013671Y006010D01*
X013624Y005946D01*
X013588Y005875D01*
X013564Y005800D01*
X013551Y005721D01*
X013551Y005682D01*
X014056Y005682D01*
X014056Y005681D01*
X013551Y005681D01*
X013551Y005642D01*
X013564Y005563D01*
X013588Y005488D01*
X013624Y005417D01*
X013671Y005352D01*
X013727Y005296D01*
X013792Y005249D01*
X013863Y005213D01*
X013938Y005189D01*
X014017Y005176D01*
X014056Y005176D01*
X014056Y005681D01*
X014057Y005681D01*
X014057Y005682D01*
X014561Y005682D01*
X014561Y005721D01*
X014549Y005800D01*
X014524Y005875D01*
X014488Y005946D01*
X014442Y006010D01*
X014385Y006067D01*
X014321Y006113D01*
X014250Y006149D01*
X014229Y006156D01*
X014464Y006156D01*
X014581Y006274D01*
X014581Y007089D01*
X014464Y007206D01*
X013649Y007206D01*
X013531Y006999D02*
X013461Y006999D01*
X013461Y006840D02*
X013531Y006840D01*
X013531Y006682D02*
X013461Y006682D01*
X013461Y006523D02*
X013531Y006523D01*
X013531Y006365D02*
X013461Y006365D01*
X013461Y006206D02*
X013599Y006206D01*
X013708Y006048D02*
X013461Y006048D01*
X013461Y005889D02*
X013595Y005889D01*
X013553Y005730D02*
X013461Y005730D01*
X013461Y005572D02*
X013562Y005572D01*
X013627Y005413D02*
X013461Y005413D01*
X013461Y005255D02*
X013784Y005255D01*
X014056Y005255D02*
X014057Y005255D01*
X014057Y005176D02*
X014096Y005176D01*
X014175Y005189D01*
X014250Y005213D01*
X014321Y005249D01*
X014385Y005296D01*
X014442Y005352D01*
X014488Y005417D01*
X014524Y005488D01*
X014549Y005563D01*
X014561Y005642D01*
X014561Y005681D01*
X014057Y005681D01*
X014057Y005176D01*
X014328Y005255D02*
X016596Y005255D01*
X016596Y005372D02*
X016596Y004991D01*
X016866Y004721D01*
X017247Y004721D01*
X017516Y004991D01*
X017516Y005372D01*
X017247Y005641D01*
X016866Y005641D01*
X016596Y005372D01*
X016638Y005413D02*
X014486Y005413D01*
X014550Y005572D02*
X016796Y005572D01*
X016596Y005096D02*
X013461Y005096D01*
X013461Y004938D02*
X016650Y004938D01*
X016808Y004779D02*
X013461Y004779D01*
X013461Y004621D02*
X016845Y004621D01*
X016866Y004641D02*
X016596Y004372D01*
X016596Y003991D01*
X016866Y003721D01*
X017247Y003721D01*
X017516Y003991D01*
X017516Y004372D01*
X017247Y004641D01*
X016866Y004641D01*
X016687Y004462D02*
X013461Y004462D01*
X013461Y004304D02*
X016596Y004304D01*
X016596Y004145D02*
X013461Y004145D01*
X013461Y003986D02*
X016601Y003986D01*
X016759Y003828D02*
X013461Y003828D01*
X013461Y003669D02*
X018671Y003669D01*
X018705Y003511D02*
X017349Y003511D01*
X017239Y003621D02*
X017057Y003621D01*
X017057Y003182D01*
X017056Y003182D01*
X017056Y003621D01*
X016874Y003621D01*
X016616Y003364D01*
X016616Y003182D01*
X017056Y003182D01*
X017056Y003181D01*
X016616Y003181D01*
X016616Y002999D01*
X016874Y002741D01*
X017056Y002741D01*
X017056Y003181D01*
X017057Y003181D01*
X017057Y003182D01*
X017496Y003182D01*
X017496Y003364D01*
X017239Y003621D01*
X017057Y003511D02*
X017056Y003511D01*
X017056Y003352D02*
X017057Y003352D01*
X017056Y003194D02*
X017057Y003194D01*
X017057Y003181D02*
X017496Y003181D01*
X017496Y002999D01*
X017239Y002741D01*
X017057Y002741D01*
X017057Y003181D01*
X017056Y003035D02*
X017057Y003035D01*
X017056Y002877D02*
X017057Y002877D01*
X017374Y002877D02*
X018691Y002877D01*
X018625Y003035D02*
X017496Y003035D01*
X017496Y003194D02*
X018611Y003194D01*
X018635Y003352D02*
X017496Y003352D01*
X017353Y003828D02*
X018611Y003828D01*
X018611Y003986D02*
X017512Y003986D01*
X017516Y004145D02*
X018611Y004145D01*
X018611Y004304D02*
X017516Y004304D01*
X017426Y004462D02*
X018611Y004462D01*
X018611Y004621D02*
X017268Y004621D01*
X017305Y004779D02*
X019666Y004779D01*
X019666Y004938D02*
X017463Y004938D01*
X017516Y005096D02*
X019666Y005096D01*
X019666Y005255D02*
X017516Y005255D01*
X017475Y005413D02*
X019666Y005413D01*
X019666Y005572D02*
X017316Y005572D01*
X018620Y006048D02*
X014404Y006048D01*
X014514Y006206D02*
X018611Y006206D01*
X018640Y006365D02*
X014581Y006365D01*
X014581Y006523D02*
X018717Y006523D01*
X018898Y006682D02*
X014581Y006682D01*
X014581Y006840D02*
X018716Y006840D01*
X018640Y006999D02*
X014581Y006999D01*
X014513Y007157D02*
X018611Y007157D01*
X018686Y005889D02*
X014517Y005889D01*
X014560Y005730D02*
X018826Y005730D01*
X019537Y005730D02*
X019666Y005730D01*
X018839Y002718D02*
X014041Y002718D01*
X014199Y002560D02*
X018782Y002560D01*
X018676Y002401D02*
X014358Y002401D01*
X014459Y002242D02*
X018634Y002242D01*
X018640Y002084D02*
X014461Y002084D01*
X014461Y001925D02*
X018695Y001925D01*
X018818Y001767D02*
X014461Y001767D01*
X014461Y001608D02*
X014986Y001608D01*
X014999Y001621D02*
X014741Y001364D01*
X014741Y001182D01*
X015181Y001182D01*
X015181Y001621D01*
X014999Y001621D01*
X015182Y001621D02*
X015364Y001621D01*
X015621Y001364D01*
X015621Y001182D01*
X015182Y001182D01*
X015182Y001181D01*
X015621Y001181D01*
X015621Y000999D01*
X015364Y000741D01*
X015182Y000741D01*
X015182Y001181D01*
X015181Y001181D01*
X015181Y000741D01*
X014999Y000741D01*
X014741Y000999D01*
X014741Y001181D01*
X015181Y001181D01*
X015181Y001182D01*
X015182Y001182D01*
X015182Y001621D01*
X015181Y001608D02*
X015182Y001608D01*
X015181Y001450D02*
X015182Y001450D01*
X015181Y001291D02*
X015182Y001291D01*
X015181Y001133D02*
X015182Y001133D01*
X015181Y000974D02*
X015182Y000974D01*
X015181Y000816D02*
X015182Y000816D01*
X015438Y000816D02*
X018741Y000816D01*
X018650Y000974D02*
X015596Y000974D01*
X015621Y001133D02*
X018611Y001133D01*
X018611Y001291D02*
X015621Y001291D01*
X015535Y001450D02*
X018676Y001450D01*
X018802Y001608D02*
X015377Y001608D01*
X014828Y001450D02*
X014564Y001450D01*
X014641Y001291D02*
X014741Y001291D01*
X014741Y001133D02*
X014641Y001133D01*
X014625Y000974D02*
X014766Y000974D01*
X014925Y000816D02*
X014466Y000816D01*
X014181Y001181D02*
X014181Y002181D01*
X013181Y003181D01*
X013181Y009181D01*
X012681Y009681D01*
X012181Y009681D01*
X011601Y010011D02*
X011373Y010011D01*
X010989Y010011D02*
X010248Y010011D01*
X010089Y010170D02*
X016596Y010170D01*
X016596Y010328D02*
X015317Y010328D01*
X015510Y010487D02*
X016711Y010487D01*
X016596Y010011D02*
X014474Y010011D01*
X014621Y009853D02*
X016735Y009853D01*
X017402Y010487D02*
X019666Y010487D01*
X019666Y010645D02*
X015559Y010645D01*
X015540Y010804D02*
X019666Y010804D01*
X019666Y010962D02*
X015461Y010962D01*
X015461Y011121D02*
X019666Y011121D01*
X019666Y011279D02*
X015461Y011279D01*
X015461Y011438D02*
X019666Y011438D01*
X019666Y011597D02*
X015461Y011597D01*
X015461Y011755D02*
X016957Y011755D01*
X016991Y011721D02*
X017372Y011721D01*
X017641Y011991D01*
X017641Y012372D01*
X017372Y012641D01*
X016991Y012641D01*
X016721Y012372D01*
X016721Y011991D01*
X016991Y011721D01*
X016799Y011914D02*
X015461Y011914D01*
X015461Y012072D02*
X016721Y012072D01*
X016721Y012231D02*
X015461Y012231D01*
X015461Y012389D02*
X016739Y012389D01*
X016897Y012548D02*
X015461Y012548D01*
X015602Y012706D02*
X019666Y012706D01*
X019666Y012548D02*
X018966Y012548D01*
X018872Y012641D02*
X018491Y012641D01*
X018221Y012372D01*
X018221Y011991D01*
X018491Y011721D01*
X018872Y011721D01*
X019141Y011991D01*
X019141Y012372D01*
X018872Y012641D01*
X019124Y012389D02*
X019666Y012389D01*
X019666Y012231D02*
X019141Y012231D01*
X019141Y012072D02*
X019666Y012072D01*
X019666Y011914D02*
X019064Y011914D01*
X018906Y011755D02*
X019666Y011755D01*
X019666Y012865D02*
X015761Y012865D01*
X015919Y013023D02*
X019666Y013023D01*
X019666Y013182D02*
X016078Y013182D01*
X016236Y013341D02*
X019666Y013341D01*
X019666Y013499D02*
X018395Y013499D01*
X018554Y013658D02*
X019666Y013658D01*
X019666Y013816D02*
X018712Y013816D01*
X018871Y013975D02*
X019666Y013975D01*
X019666Y014133D02*
X018961Y014133D01*
X018961Y014292D02*
X019666Y014292D01*
X019666Y014450D02*
X018961Y014450D01*
X018961Y014609D02*
X019666Y014609D01*
X019666Y014767D02*
X018961Y014767D01*
X018961Y014926D02*
X019666Y014926D01*
X019666Y015084D02*
X018961Y015084D01*
X018961Y015243D02*
X019666Y015243D01*
X019666Y015402D02*
X018961Y015402D01*
X018961Y015560D02*
X019666Y015560D01*
X019666Y015719D02*
X018961Y015719D01*
X018961Y015877D02*
X019666Y015877D01*
X019666Y016036D02*
X018961Y016036D01*
X018961Y016194D02*
X019666Y016194D01*
X019666Y016353D02*
X018961Y016353D01*
X018961Y016511D02*
X019666Y016511D01*
X019666Y016670D02*
X018961Y016670D01*
X018979Y016828D02*
X019666Y016828D01*
X019666Y016987D02*
X019138Y016987D01*
X019141Y017146D02*
X019666Y017146D01*
X019666Y017304D02*
X019141Y017304D01*
X019051Y017463D02*
X019666Y017463D01*
X019666Y017621D02*
X018892Y017621D01*
X018471Y017621D02*
X017392Y017621D01*
X017372Y017641D02*
X016991Y017641D01*
X016721Y017372D01*
X016721Y016991D01*
X016991Y016721D01*
X017372Y016721D01*
X017641Y016991D01*
X017641Y017372D01*
X017372Y017641D01*
X017551Y017463D02*
X018312Y017463D01*
X018221Y017304D02*
X017641Y017304D01*
X017641Y017146D02*
X018221Y017146D01*
X018225Y016987D02*
X017638Y016987D01*
X017479Y016828D02*
X018384Y016828D01*
X018401Y016670D02*
X013566Y016670D01*
X013724Y016828D02*
X016884Y016828D01*
X016725Y016987D02*
X013883Y016987D01*
X014041Y017146D02*
X016721Y017146D01*
X016721Y017304D02*
X014200Y017304D01*
X014359Y017463D02*
X016812Y017463D01*
X016971Y017621D02*
X014517Y017621D01*
X014676Y017780D02*
X019666Y017780D01*
X019666Y017938D02*
X014834Y017938D01*
X014993Y018097D02*
X019666Y018097D01*
X019666Y018255D02*
X018848Y018255D01*
X018772Y018224D02*
X018941Y018294D01*
X019069Y018422D01*
X019139Y018590D01*
X019139Y018772D01*
X019069Y018941D01*
X018941Y019069D01*
X018772Y019139D01*
X018590Y019139D01*
X018422Y019069D01*
X018294Y018941D01*
X018224Y018772D01*
X018224Y018590D01*
X018294Y018422D01*
X018422Y018294D01*
X018590Y018224D01*
X018772Y018224D01*
X018515Y018255D02*
X016786Y018255D01*
X016784Y018255D02*
X016849Y018276D01*
X016911Y018307D01*
X016966Y018348D01*
X017015Y018396D01*
X017056Y018452D01*
X017087Y018513D01*
X017108Y018579D01*
X017119Y018647D01*
X017119Y018681D01*
X016682Y018681D01*
X016682Y018682D01*
X017119Y018682D01*
X017119Y018716D01*
X017108Y018784D01*
X017087Y018849D01*
X017056Y018911D01*
X017015Y018966D01*
X016966Y019015D01*
X016911Y019056D01*
X016849Y019087D01*
X016784Y019108D01*
X016716Y019119D01*
X016682Y019119D01*
X016682Y018682D01*
X016681Y018682D01*
X016681Y019119D01*
X016647Y019119D01*
X016579Y019108D01*
X016513Y019087D01*
X016452Y019056D01*
X016396Y019015D01*
X016348Y018966D01*
X016307Y018911D01*
X016276Y018849D01*
X016255Y018784D01*
X016244Y018716D01*
X016244Y018682D01*
X016681Y018682D01*
X016681Y018681D01*
X016682Y018681D01*
X016682Y018244D01*
X016716Y018244D01*
X016784Y018255D01*
X016682Y018255D02*
X016681Y018255D01*
X016681Y018244D02*
X016681Y018681D01*
X016244Y018681D01*
X016244Y018647D01*
X016255Y018579D01*
X016276Y018513D01*
X016307Y018452D01*
X016348Y018396D01*
X016396Y018348D01*
X016452Y018307D01*
X016513Y018276D01*
X016579Y018255D01*
X016647Y018244D01*
X016681Y018244D01*
X016577Y018255D02*
X015348Y018255D01*
X015561Y018414D02*
X016335Y018414D01*
X016257Y018572D02*
X015631Y018572D01*
X015639Y018731D02*
X016246Y018731D01*
X016296Y018890D02*
X015590Y018890D01*
X015462Y019048D02*
X016442Y019048D01*
X016681Y019048D02*
X016682Y019048D01*
X016681Y018890D02*
X016682Y018890D01*
X016681Y018731D02*
X016682Y018731D01*
X016681Y018572D02*
X016682Y018572D01*
X016681Y018414D02*
X016682Y018414D01*
X017028Y018414D02*
X018302Y018414D01*
X018231Y018572D02*
X017106Y018572D01*
X017116Y018731D02*
X018224Y018731D01*
X018272Y018890D02*
X017066Y018890D01*
X016921Y019048D02*
X018401Y019048D01*
X018962Y019048D02*
X019666Y019048D01*
X019666Y018890D02*
X019090Y018890D01*
X019139Y018731D02*
X019666Y018731D01*
X019666Y018572D02*
X019131Y018572D01*
X019061Y018414D02*
X019666Y018414D01*
X019666Y019207D02*
X000381Y019207D01*
X000381Y019365D02*
X019666Y019365D01*
X019666Y019524D02*
X000381Y019524D01*
X000381Y019048D02*
X007398Y019048D01*
X007491Y019141D02*
X007221Y018872D01*
X007221Y018491D01*
X007491Y018221D01*
X007872Y018221D01*
X008141Y018491D01*
X008141Y018872D01*
X007872Y019141D01*
X007491Y019141D01*
X007239Y018890D02*
X004397Y018890D01*
X004270Y018942D02*
X004549Y018827D01*
X004764Y018612D01*
X004879Y018333D01*
X004879Y018030D01*
X004764Y017750D01*
X004549Y017536D01*
X004270Y017420D01*
X003967Y017420D01*
X003687Y017536D01*
X003473Y017750D01*
X003357Y018030D01*
X003357Y018333D01*
X003473Y018612D01*
X003687Y018827D01*
X003967Y018942D01*
X004270Y018942D01*
X004645Y018731D02*
X007221Y018731D01*
X007221Y018572D02*
X006797Y018572D01*
X006765Y018605D02*
X006905Y018465D01*
X006981Y018281D01*
X006981Y018082D01*
X006905Y017898D01*
X006765Y017758D01*
X006581Y017681D01*
X005782Y017681D01*
X005598Y017605D01*
X005458Y017465D01*
X005381Y017281D01*
X005381Y017082D01*
X005458Y016898D01*
X005598Y016758D01*
X005782Y016681D01*
X006581Y016681D01*
X006765Y016758D01*
X006905Y016898D01*
X006981Y017082D01*
X006981Y017281D01*
X006905Y017465D01*
X006765Y017605D01*
X006581Y017681D01*
X005782Y017681D01*
X005598Y017758D01*
X005458Y017898D01*
X005381Y018082D01*
X005381Y018281D01*
X005458Y018465D01*
X005598Y018605D01*
X005782Y018681D01*
X006581Y018681D01*
X006765Y018605D01*
X006926Y018414D02*
X007298Y018414D01*
X007457Y018255D02*
X006981Y018255D01*
X006981Y018097D02*
X010946Y018097D01*
X010991Y018141D02*
X010721Y017872D01*
X010721Y017491D01*
X010991Y017221D01*
X011372Y017221D01*
X011641Y017491D01*
X011641Y017872D01*
X011372Y018141D01*
X010991Y018141D01*
X010999Y018241D02*
X010741Y018499D01*
X010741Y018681D01*
X011181Y018681D01*
X011181Y018682D01*
X011181Y019121D01*
X010999Y019121D01*
X010741Y018864D01*
X010741Y018682D01*
X011181Y018682D01*
X011182Y018682D01*
X011182Y019121D01*
X011364Y019121D01*
X011621Y018864D01*
X011621Y018682D01*
X011182Y018682D01*
X011182Y018681D01*
X011621Y018681D01*
X011621Y018499D01*
X011364Y018241D01*
X011182Y018241D01*
X011182Y018681D01*
X011181Y018681D01*
X011181Y018241D01*
X010999Y018241D01*
X010985Y018255D02*
X008878Y018255D01*
X008864Y018241D02*
X009121Y018499D01*
X009121Y018681D01*
X008682Y018681D01*
X008682Y018682D01*
X009121Y018682D01*
X009121Y018864D01*
X008864Y019121D01*
X008682Y019121D01*
X008682Y018682D01*
X008681Y018682D01*
X008681Y019121D01*
X008499Y019121D01*
X008241Y018864D01*
X008241Y018682D01*
X008681Y018682D01*
X008681Y018681D01*
X008682Y018681D01*
X008682Y018241D01*
X008864Y018241D01*
X008681Y018241D02*
X008681Y018681D01*
X008241Y018681D01*
X008241Y018499D01*
X008499Y018241D01*
X008681Y018241D01*
X008681Y018255D02*
X008682Y018255D01*
X008681Y018414D02*
X008682Y018414D01*
X008681Y018572D02*
X008682Y018572D01*
X008681Y018731D02*
X008682Y018731D01*
X008681Y018890D02*
X008682Y018890D01*
X008681Y019048D02*
X008682Y019048D01*
X008937Y019048D02*
X010926Y019048D01*
X010767Y018890D02*
X009095Y018890D01*
X009121Y018731D02*
X010741Y018731D01*
X010741Y018572D02*
X009121Y018572D01*
X009036Y018414D02*
X010827Y018414D01*
X011181Y018414D02*
X011182Y018414D01*
X011181Y018572D02*
X011182Y018572D01*
X011181Y018731D02*
X011182Y018731D01*
X011181Y018890D02*
X011182Y018890D01*
X011181Y019048D02*
X011182Y019048D01*
X011437Y019048D02*
X012942Y019048D01*
X012952Y019056D02*
X012896Y019015D01*
X012848Y018966D01*
X012807Y018911D01*
X012776Y018849D01*
X012755Y018784D01*
X012744Y018716D01*
X012744Y018682D01*
X013181Y018682D01*
X013181Y019119D01*
X013147Y019119D01*
X013079Y019108D01*
X013013Y019087D01*
X012952Y019056D01*
X012796Y018890D02*
X011595Y018890D01*
X011621Y018731D02*
X012746Y018731D01*
X012744Y018681D02*
X012744Y018647D01*
X012755Y018579D01*
X012776Y018513D01*
X012807Y018452D01*
X012848Y018396D01*
X012896Y018348D01*
X012952Y018307D01*
X013013Y018276D01*
X013079Y018255D01*
X013147Y018244D01*
X013181Y018244D01*
X013181Y018681D01*
X013182Y018681D01*
X013182Y018682D01*
X013619Y018682D01*
X013619Y018716D01*
X013608Y018784D01*
X013587Y018849D01*
X013556Y018911D01*
X013515Y018966D01*
X013466Y019015D01*
X013411Y019056D01*
X013349Y019087D01*
X013284Y019108D01*
X013216Y019119D01*
X013182Y019119D01*
X013182Y018682D01*
X013181Y018682D01*
X013181Y018681D01*
X012744Y018681D01*
X012757Y018572D02*
X011621Y018572D01*
X011536Y018414D02*
X012835Y018414D01*
X013077Y018255D02*
X011378Y018255D01*
X011416Y018097D02*
X014201Y018097D01*
X014359Y018255D02*
X013286Y018255D01*
X013284Y018255D02*
X013349Y018276D01*
X013411Y018307D01*
X013466Y018348D01*
X013515Y018396D01*
X013556Y018452D01*
X013587Y018513D01*
X013608Y018579D01*
X013619Y018647D01*
X013619Y018681D01*
X013182Y018681D01*
X013182Y018244D01*
X013216Y018244D01*
X013284Y018255D01*
X013182Y018255D02*
X013181Y018255D01*
X013181Y018414D02*
X013182Y018414D01*
X013181Y018572D02*
X013182Y018572D01*
X013181Y018731D02*
X013182Y018731D01*
X013181Y018890D02*
X013182Y018890D01*
X013181Y019048D02*
X013182Y019048D01*
X013421Y019048D02*
X014901Y019048D01*
X014772Y018890D02*
X013566Y018890D01*
X013616Y018731D02*
X014724Y018731D01*
X014677Y018572D02*
X013606Y018572D01*
X013528Y018414D02*
X014518Y018414D01*
X014042Y017938D02*
X011575Y017938D01*
X011641Y017780D02*
X013884Y017780D01*
X013725Y017621D02*
X011641Y017621D01*
X011613Y017463D02*
X013567Y017463D01*
X013408Y017304D02*
X011455Y017304D01*
X010908Y017304D02*
X010141Y017304D01*
X010141Y017372D02*
X009872Y017641D01*
X009491Y017641D01*
X009221Y017372D01*
X009221Y016991D01*
X009491Y016721D01*
X009872Y016721D01*
X010141Y016991D01*
X010141Y017372D01*
X010051Y017463D02*
X010750Y017463D01*
X010721Y017621D02*
X009892Y017621D01*
X009471Y017621D02*
X008674Y017621D01*
X008706Y017589D02*
X008589Y017706D01*
X007774Y017706D01*
X007656Y017589D01*
X007656Y016774D01*
X007774Y016656D01*
X008009Y016656D01*
X007988Y016649D01*
X007917Y016613D01*
X007852Y016567D01*
X007796Y016510D01*
X007749Y016446D01*
X007713Y016375D01*
X007689Y016300D01*
X007676Y016221D01*
X007676Y016182D01*
X008181Y016182D01*
X008181Y016181D01*
X007676Y016181D01*
X007676Y016142D01*
X007689Y016063D01*
X007713Y015988D01*
X007749Y015917D01*
X007796Y015852D01*
X007852Y015796D01*
X007917Y015749D01*
X007988Y015713D01*
X008063Y015689D01*
X008142Y015676D01*
X008181Y015676D01*
X008181Y016181D01*
X008182Y016181D01*
X008182Y016182D01*
X008686Y016182D01*
X008686Y016221D01*
X008674Y016300D01*
X008649Y016375D01*
X008613Y016446D01*
X008567Y016510D01*
X008510Y016567D01*
X008446Y016613D01*
X008375Y016649D01*
X008353Y016656D01*
X008589Y016656D01*
X008706Y016774D01*
X008706Y017589D01*
X008706Y017463D02*
X009312Y017463D01*
X009221Y017304D02*
X008706Y017304D01*
X008706Y017146D02*
X009221Y017146D01*
X009225Y016987D02*
X008706Y016987D01*
X008706Y016828D02*
X009384Y016828D01*
X009499Y016621D02*
X009241Y016364D01*
X009241Y016182D01*
X009681Y016182D01*
X009681Y016621D01*
X009499Y016621D01*
X009389Y016511D02*
X008566Y016511D01*
X008603Y016670D02*
X012774Y016670D01*
X012933Y016828D02*
X009979Y016828D01*
X010138Y016987D02*
X013091Y016987D01*
X013250Y017146D02*
X010141Y017146D01*
X009864Y016621D02*
X009682Y016621D01*
X009682Y016182D01*
X009681Y016182D01*
X009681Y016181D01*
X009241Y016181D01*
X009241Y015999D01*
X009499Y015741D01*
X009681Y015741D01*
X009681Y016181D01*
X009682Y016181D01*
X009682Y016182D01*
X010121Y016182D01*
X010121Y016364D01*
X009864Y016621D01*
X009974Y016511D02*
X010861Y016511D01*
X010991Y016641D02*
X010721Y016372D01*
X010721Y015991D01*
X010991Y015721D01*
X011372Y015721D01*
X011641Y015991D01*
X011641Y016372D01*
X011372Y016641D01*
X010991Y016641D01*
X010721Y016353D02*
X010121Y016353D01*
X010121Y016194D02*
X010721Y016194D01*
X010721Y016036D02*
X010121Y016036D01*
X010121Y015999D02*
X010121Y016181D01*
X009682Y016181D01*
X009682Y015741D01*
X009864Y015741D01*
X010121Y015999D01*
X009999Y015877D02*
X010835Y015877D01*
X011006Y015402D02*
X004961Y015402D01*
X004961Y015560D02*
X011664Y015560D01*
X011823Y015719D02*
X008386Y015719D01*
X008375Y015713D02*
X008446Y015749D01*
X008510Y015796D01*
X008567Y015852D01*
X008613Y015917D01*
X008649Y015988D01*
X008674Y016063D01*
X008686Y016142D01*
X008686Y016181D01*
X008182Y016181D01*
X008182Y015676D01*
X008221Y015676D01*
X008300Y015689D01*
X008375Y015713D01*
X008182Y015719D02*
X008181Y015719D01*
X008181Y015877D02*
X008182Y015877D01*
X008181Y016036D02*
X008182Y016036D01*
X007977Y015719D02*
X006611Y015719D01*
X006594Y015713D02*
X006666Y015737D01*
X006733Y015771D01*
X006794Y015815D01*
X006848Y015869D01*
X006892Y015930D01*
X006926Y015997D01*
X006950Y016069D01*
X006961Y016144D01*
X006961Y016161D01*
X006202Y016161D01*
X006202Y016201D01*
X006961Y016201D01*
X006961Y016219D01*
X006950Y016294D01*
X006926Y016366D01*
X006892Y016433D01*
X006848Y016494D01*
X006794Y016548D01*
X006733Y016592D01*
X006666Y016626D01*
X006594Y016650D01*
X006519Y016661D01*
X006201Y016661D01*
X006201Y016202D01*
X006161Y016202D01*
X006161Y016661D01*
X005844Y016661D01*
X005769Y016650D01*
X005697Y016626D01*
X005630Y016592D01*
X005569Y016548D01*
X005515Y016494D01*
X005471Y016433D01*
X005437Y016366D01*
X005413Y016294D01*
X005401Y016219D01*
X005401Y016201D01*
X006161Y016201D01*
X006161Y016161D01*
X006201Y016161D01*
X006201Y015701D01*
X006519Y015701D01*
X006594Y015713D01*
X006854Y015877D02*
X007778Y015877D01*
X007698Y016036D02*
X006939Y016036D01*
X006930Y016353D02*
X007706Y016353D01*
X007676Y016194D02*
X006202Y016194D01*
X006161Y016194D02*
X005059Y016194D01*
X005030Y016036D02*
X005424Y016036D01*
X005413Y016069D02*
X005437Y015997D01*
X005471Y015930D01*
X005515Y015869D01*
X005569Y015815D01*
X005630Y015771D01*
X005697Y015737D01*
X005769Y015713D01*
X005844Y015701D01*
X006161Y015701D01*
X006161Y016161D01*
X005401Y016161D01*
X005401Y016144D01*
X005413Y016069D01*
X005509Y015877D02*
X004961Y015877D01*
X004961Y015719D02*
X005752Y015719D01*
X006161Y015719D02*
X006201Y015719D01*
X006201Y015877D02*
X006161Y015877D01*
X006161Y016036D02*
X006201Y016036D01*
X006201Y016353D02*
X006161Y016353D01*
X006161Y016511D02*
X006201Y016511D01*
X006830Y016511D02*
X007797Y016511D01*
X007760Y016670D02*
X004089Y016670D01*
X004247Y016511D02*
X004490Y016511D01*
X004681Y016181D02*
X004681Y012681D01*
X007181Y010181D01*
X009681Y010181D01*
X010181Y009681D01*
X011181Y009681D01*
X010951Y009377D02*
X009882Y009377D01*
X009879Y009535D02*
X009931Y009535D01*
X010040Y009218D02*
X012748Y009218D01*
X012713Y009060D02*
X012901Y009060D01*
X012901Y008901D02*
X012848Y008901D01*
X012901Y008743D02*
X012901Y008743D01*
X012899Y008584D02*
X012901Y008584D01*
X012901Y008426D02*
X012833Y008426D01*
X012901Y008267D02*
X012643Y008267D01*
X012612Y008109D02*
X012901Y008109D01*
X012901Y007950D02*
X012823Y007950D01*
X012894Y007791D02*
X012901Y007791D01*
X012901Y007633D02*
X012901Y007633D01*
X012901Y007474D02*
X012854Y007474D01*
X012901Y007316D02*
X012726Y007316D01*
X012901Y007157D02*
X007251Y007157D01*
X007251Y006999D02*
X008588Y006999D01*
X008531Y006942D02*
X008461Y006773D01*
X008461Y006590D01*
X008531Y006421D01*
X008661Y006291D01*
X008830Y006221D01*
X009533Y006221D01*
X009702Y006291D01*
X009831Y006421D01*
X009901Y006590D01*
X009901Y006773D01*
X009831Y006942D01*
X009702Y007071D01*
X009533Y007141D01*
X008830Y007141D01*
X008661Y007071D01*
X008531Y006942D01*
X008489Y006840D02*
X007251Y006840D01*
X007251Y006729D02*
X007134Y006611D01*
X007025Y006611D01*
X007040Y006601D01*
X007101Y006540D01*
X007152Y006470D01*
X007191Y006393D01*
X007218Y006310D01*
X007231Y006225D01*
X007231Y006201D01*
X006702Y006201D01*
X006702Y006161D01*
X007231Y006161D01*
X007231Y006138D01*
X007218Y006053D01*
X007191Y005970D01*
X007152Y005893D01*
X007101Y005823D01*
X007040Y005762D01*
X006970Y005711D01*
X006935Y005693D01*
X007004Y005665D01*
X007165Y005504D01*
X007251Y005295D01*
X007251Y005068D01*
X007165Y004859D01*
X007004Y004698D01*
X006795Y004611D01*
X006568Y004611D01*
X006359Y004698D01*
X006198Y004859D01*
X006111Y005068D01*
X006111Y005295D01*
X006198Y005504D01*
X006359Y005665D01*
X006428Y005693D01*
X006393Y005711D01*
X006323Y005762D01*
X006262Y005823D01*
X006211Y005893D01*
X006172Y005970D01*
X006145Y006053D01*
X006131Y006138D01*
X006131Y006161D01*
X006661Y006161D01*
X006661Y006201D01*
X006131Y006201D01*
X006131Y006225D01*
X006145Y006310D01*
X006172Y006393D01*
X006211Y006470D01*
X006262Y006540D01*
X006323Y006601D01*
X006338Y006611D01*
X006229Y006611D01*
X006111Y006729D01*
X006111Y007634D01*
X006229Y007751D01*
X007134Y007751D01*
X007251Y007634D01*
X007251Y006729D01*
X007205Y006682D02*
X008461Y006682D01*
X008489Y006523D02*
X007113Y006523D01*
X007200Y006365D02*
X008588Y006365D01*
X008661Y006071D02*
X008531Y005942D01*
X008461Y005773D01*
X008461Y005590D01*
X008531Y005421D01*
X008661Y005291D01*
X008830Y005221D01*
X009533Y005221D01*
X009702Y005291D01*
X009831Y005421D01*
X009901Y005590D01*
X009901Y005773D01*
X009831Y005942D01*
X009702Y006071D01*
X009533Y006141D01*
X008830Y006141D01*
X008661Y006071D01*
X008637Y006048D02*
X007216Y006048D01*
X007231Y006206D02*
X012901Y006206D01*
X012901Y006048D02*
X012686Y006048D01*
X012672Y006058D02*
X012610Y006089D01*
X012544Y006111D01*
X012476Y006121D01*
X012182Y006121D01*
X012182Y005682D01*
X012181Y005682D01*
X012181Y006121D01*
X011887Y006121D01*
X011818Y006111D01*
X011752Y006089D01*
X011691Y006058D01*
X011635Y006017D01*
X011586Y005968D01*
X011545Y005912D01*
X011514Y005850D01*
X011492Y005784D01*
X011481Y005716D01*
X011481Y005682D01*
X012181Y005682D01*
X012181Y005681D01*
X012182Y005681D01*
X012182Y005682D01*
X012881Y005682D01*
X012881Y005716D01*
X012871Y005784D01*
X012849Y005850D01*
X012818Y005912D01*
X012777Y005968D01*
X012728Y006017D01*
X012672Y006058D01*
X012533Y006221D02*
X012702Y006291D01*
X012831Y006421D01*
X012901Y006590D01*
X012901Y006773D01*
X012831Y006942D01*
X012702Y007071D01*
X012533Y007141D01*
X011830Y007141D01*
X011661Y007071D01*
X011531Y006942D01*
X011461Y006773D01*
X011461Y006590D01*
X011531Y006421D01*
X011661Y006291D01*
X011830Y006221D01*
X012533Y006221D01*
X012775Y006365D02*
X012901Y006365D01*
X012901Y006523D02*
X012874Y006523D01*
X012901Y006682D02*
X012901Y006682D01*
X012901Y006840D02*
X012874Y006840D01*
X012901Y006999D02*
X012775Y006999D01*
X012181Y007681D02*
X010181Y007681D01*
X009681Y008181D01*
X007181Y008181D01*
X002681Y012681D01*
X002681Y016081D01*
X002397Y015719D02*
X002226Y015719D01*
X002401Y015560D02*
X000381Y015560D01*
X000381Y015402D02*
X002401Y015402D01*
X002401Y015243D02*
X000381Y015243D01*
X000381Y015084D02*
X002401Y015084D01*
X002401Y014926D02*
X000381Y014926D01*
X000381Y014767D02*
X002401Y014767D01*
X002401Y014609D02*
X001251Y014609D01*
X001251Y014450D02*
X002401Y014450D01*
X002401Y014292D02*
X001251Y014292D01*
X001251Y014133D02*
X002401Y014133D01*
X002401Y013975D02*
X001251Y013975D01*
X001251Y013816D02*
X002401Y013816D01*
X002401Y013658D02*
X001180Y013658D01*
X001167Y013499D02*
X002401Y013499D01*
X002401Y013341D02*
X001232Y013341D01*
X001251Y013182D02*
X002401Y013182D01*
X002401Y013023D02*
X001233Y013023D01*
X001167Y012865D02*
X002401Y012865D01*
X002401Y012706D02*
X001012Y012706D01*
X001121Y012548D02*
X002434Y012548D01*
X002578Y012389D02*
X001212Y012389D01*
X001251Y012231D02*
X002736Y012231D01*
X002895Y012072D02*
X001251Y012072D01*
X001187Y011914D02*
X003053Y011914D01*
X003212Y011755D02*
X001061Y011755D01*
X001072Y011597D02*
X003370Y011597D01*
X003460Y011438D02*
X003529Y011438D01*
X003550Y011279D02*
X003687Y011279D01*
X003638Y011121D02*
X003846Y011121D01*
X003796Y010962D02*
X004004Y010962D01*
X003955Y010804D02*
X004163Y010804D01*
X004113Y010645D02*
X004322Y010645D01*
X004272Y010487D02*
X004480Y010487D01*
X004424Y010328D02*
X004639Y010328D01*
X004797Y010170D02*
X004461Y010170D01*
X004461Y010011D02*
X004956Y010011D01*
X005114Y009853D02*
X004461Y009853D01*
X004461Y009694D02*
X005273Y009694D01*
X005431Y009535D02*
X004461Y009535D01*
X004461Y009377D02*
X005590Y009377D01*
X005748Y009218D02*
X004461Y009218D01*
X004461Y009060D02*
X005907Y009060D01*
X006066Y008901D02*
X004461Y008901D01*
X004461Y008743D02*
X006224Y008743D01*
X006383Y008584D02*
X004461Y008584D01*
X004461Y008426D02*
X006541Y008426D01*
X006700Y008267D02*
X004461Y008267D01*
X004461Y008109D02*
X006858Y008109D01*
X007017Y007950D02*
X004461Y007950D01*
X004461Y007791D02*
X008495Y007791D01*
X008481Y007681D02*
X008481Y007647D01*
X008492Y007578D01*
X008514Y007512D01*
X008545Y007451D01*
X008586Y007395D01*
X008635Y007346D01*
X008691Y007305D01*
X008752Y007274D01*
X008818Y007252D01*
X008887Y007241D01*
X009181Y007241D01*
X009181Y007681D01*
X008481Y007681D01*
X008484Y007633D02*
X007251Y007633D01*
X007251Y007474D02*
X008533Y007474D01*
X008676Y007316D02*
X007251Y007316D01*
X006250Y006523D02*
X004461Y006523D01*
X004461Y006365D02*
X006163Y006365D01*
X006131Y006206D02*
X004461Y006206D01*
X004461Y006048D02*
X006147Y006048D01*
X006214Y005889D02*
X004461Y005889D01*
X004461Y005730D02*
X006366Y005730D01*
X006266Y005572D02*
X004461Y005572D01*
X004461Y005413D02*
X006161Y005413D01*
X006111Y005255D02*
X004461Y005255D01*
X004461Y005096D02*
X006111Y005096D01*
X006165Y004938D02*
X004461Y004938D01*
X004461Y004779D02*
X006278Y004779D01*
X006546Y004621D02*
X004461Y004621D01*
X004461Y004462D02*
X008514Y004462D01*
X008531Y004421D02*
X008661Y004291D01*
X008830Y004221D01*
X009533Y004221D01*
X009702Y004291D01*
X009831Y004421D01*
X009901Y004590D01*
X009901Y004773D01*
X009831Y004942D01*
X009702Y005071D01*
X009533Y005141D01*
X008830Y005141D01*
X008661Y005071D01*
X008531Y004942D01*
X008461Y004773D01*
X008461Y004590D01*
X008531Y004421D01*
X008649Y004304D02*
X004461Y004304D01*
X004461Y004145D02*
X012901Y004145D01*
X012901Y004304D02*
X012714Y004304D01*
X012702Y004291D02*
X012831Y004421D01*
X012901Y004590D01*
X012901Y004773D01*
X012831Y004942D01*
X012702Y005071D01*
X012533Y005141D01*
X011830Y005141D01*
X011661Y005071D01*
X011531Y004942D01*
X011461Y004773D01*
X011461Y004590D01*
X011531Y004421D01*
X011661Y004291D01*
X011830Y004221D01*
X012533Y004221D01*
X012702Y004291D01*
X012702Y004071D02*
X012533Y004141D01*
X011830Y004141D01*
X011661Y004071D01*
X011531Y003942D01*
X011461Y003773D01*
X011461Y003590D01*
X011531Y003421D01*
X011661Y003291D01*
X011830Y003221D01*
X012533Y003221D01*
X012702Y003291D01*
X012831Y003421D01*
X012901Y003590D01*
X012901Y003773D01*
X012831Y003942D01*
X012702Y004071D01*
X012787Y003986D02*
X012901Y003986D01*
X012901Y003828D02*
X012879Y003828D01*
X012901Y003669D02*
X012901Y003669D01*
X012901Y003511D02*
X012869Y003511D01*
X012901Y003352D02*
X012763Y003352D01*
X012901Y003194D02*
X010559Y003194D01*
X010530Y003035D02*
X011625Y003035D01*
X011661Y003071D02*
X011531Y002942D01*
X011461Y002773D01*
X011461Y002590D01*
X011531Y002421D01*
X011661Y002291D01*
X011830Y002221D01*
X012533Y002221D01*
X012702Y002291D01*
X012831Y002421D01*
X012901Y002590D01*
X012901Y002773D01*
X012831Y002942D01*
X012702Y003071D01*
X012533Y003141D01*
X011830Y003141D01*
X011661Y003071D01*
X011504Y002877D02*
X010461Y002877D01*
X010461Y002718D02*
X011461Y002718D01*
X011474Y002560D02*
X010461Y002560D01*
X010461Y002401D02*
X011551Y002401D01*
X011779Y002242D02*
X010461Y002242D01*
X010461Y002084D02*
X011691Y002084D01*
X011661Y002071D02*
X011531Y001942D01*
X011461Y001773D01*
X011461Y001590D01*
X011531Y001421D01*
X011661Y001291D01*
X010968Y001291D01*
X011126Y001133D02*
X013721Y001133D01*
X013721Y001291D02*
X012701Y001291D01*
X012702Y001291D02*
X012831Y001421D01*
X012901Y001590D01*
X012901Y001773D01*
X012831Y001942D01*
X012702Y002071D01*
X012533Y002141D01*
X011830Y002141D01*
X011661Y002071D01*
X011525Y001925D02*
X010461Y001925D01*
X010492Y001767D02*
X011461Y001767D01*
X011461Y001608D02*
X010650Y001608D01*
X010809Y001450D02*
X011519Y001450D01*
X011661Y001291D02*
X011830Y001221D01*
X012533Y001221D01*
X012702Y001291D01*
X012843Y001450D02*
X013799Y001450D01*
X013901Y001608D02*
X012901Y001608D01*
X012901Y001767D02*
X013901Y001767D01*
X013901Y001925D02*
X012838Y001925D01*
X012672Y002084D02*
X013883Y002084D01*
X013724Y002242D02*
X012584Y002242D01*
X012812Y002401D02*
X013566Y002401D01*
X013407Y002560D02*
X012889Y002560D01*
X012901Y002718D02*
X013249Y002718D01*
X013090Y002877D02*
X012858Y002877D01*
X012939Y003035D02*
X012738Y003035D01*
X013461Y003352D02*
X015221Y003352D01*
X015221Y003372D02*
X015221Y002991D01*
X015491Y002721D01*
X015872Y002721D01*
X016141Y002991D01*
X016141Y003372D01*
X015872Y003641D01*
X015491Y003641D01*
X015221Y003372D01*
X015221Y003194D02*
X013565Y003194D01*
X013724Y003035D02*
X015221Y003035D01*
X015336Y002877D02*
X013882Y002877D01*
X013461Y003511D02*
X015360Y003511D01*
X016002Y003511D02*
X016764Y003511D01*
X016616Y003352D02*
X016141Y003352D01*
X016141Y003194D02*
X016616Y003194D01*
X016616Y003035D02*
X016141Y003035D01*
X016027Y002877D02*
X016739Y002877D01*
X018958Y000657D02*
X014053Y000657D01*
X013894Y000499D02*
X019666Y000499D01*
X019666Y000657D02*
X019405Y000657D01*
X019622Y000816D02*
X019666Y000816D01*
X014181Y001181D02*
X013681Y000681D01*
X011181Y000681D01*
X010181Y001681D01*
X010181Y003181D01*
X009833Y003035D02*
X009738Y003035D01*
X009702Y003071D02*
X009533Y003141D01*
X008830Y003141D01*
X008661Y003071D01*
X008531Y002942D01*
X008461Y002773D01*
X008461Y002590D01*
X008531Y002421D01*
X008661Y002291D01*
X008830Y002221D01*
X009533Y002221D01*
X009702Y002291D01*
X009831Y002421D01*
X009901Y002590D01*
X009901Y002773D01*
X009831Y002942D01*
X009702Y003071D01*
X009803Y003194D02*
X007695Y003194D01*
X007766Y003035D02*
X008625Y003035D01*
X008504Y002877D02*
X007766Y002877D01*
X007744Y002718D02*
X008461Y002718D01*
X008474Y002560D02*
X007585Y002560D01*
X007297Y002401D02*
X008551Y002401D01*
X008779Y002242D02*
X007138Y002242D01*
X006980Y002084D02*
X008691Y002084D01*
X008661Y002071D02*
X008531Y001942D01*
X008461Y001773D01*
X008461Y001590D01*
X008531Y001421D01*
X008661Y001291D01*
X007751Y001291D01*
X007751Y001133D02*
X010334Y001133D01*
X010176Y001291D02*
X009701Y001291D01*
X009702Y001291D02*
X009831Y001421D01*
X009901Y001590D01*
X009901Y001773D01*
X009831Y001942D01*
X009702Y002071D01*
X009533Y002141D01*
X008830Y002141D01*
X008661Y002071D01*
X008525Y001925D02*
X006821Y001925D01*
X006663Y001767D02*
X008461Y001767D01*
X008461Y001608D02*
X007751Y001608D01*
X007751Y001450D02*
X008519Y001450D01*
X008661Y001291D02*
X008830Y001221D01*
X009533Y001221D01*
X009702Y001291D01*
X009843Y001450D02*
X010017Y001450D01*
X009909Y001608D02*
X009901Y001608D01*
X009901Y001767D02*
X009901Y001767D01*
X009901Y001925D02*
X009838Y001925D01*
X009901Y002084D02*
X009672Y002084D01*
X009584Y002242D02*
X009901Y002242D01*
X009901Y002401D02*
X009812Y002401D01*
X009889Y002560D02*
X009901Y002560D01*
X009901Y002718D02*
X009901Y002718D01*
X009901Y002877D02*
X009858Y002877D01*
X009702Y003291D02*
X009533Y003221D01*
X008830Y003221D01*
X008661Y003291D01*
X008531Y003421D01*
X008461Y003590D01*
X008461Y003773D01*
X008531Y003942D01*
X008661Y004071D01*
X008830Y004141D01*
X009533Y004141D01*
X009702Y004071D01*
X009831Y003942D01*
X009901Y003773D01*
X009901Y003590D01*
X009831Y003421D01*
X009702Y003291D01*
X009763Y003352D02*
X009843Y003352D01*
X009869Y003511D02*
X009989Y003511D01*
X009901Y003669D02*
X011461Y003669D01*
X011484Y003828D02*
X009879Y003828D01*
X009787Y003986D02*
X011576Y003986D01*
X011649Y004304D02*
X009714Y004304D01*
X009848Y004462D02*
X011514Y004462D01*
X011461Y004621D02*
X009901Y004621D01*
X009899Y004779D02*
X011464Y004779D01*
X011530Y004938D02*
X009833Y004938D01*
X009642Y005096D02*
X011721Y005096D01*
X011752Y005274D02*
X011818Y005252D01*
X011887Y005241D01*
X012181Y005241D01*
X012181Y005681D01*
X011481Y005681D01*
X011481Y005647D01*
X011492Y005578D01*
X011514Y005512D01*
X011545Y005451D01*
X011586Y005395D01*
X011635Y005346D01*
X011691Y005305D01*
X011752Y005274D01*
X011810Y005255D02*
X009613Y005255D01*
X009824Y005413D02*
X011572Y005413D01*
X011494Y005572D02*
X009894Y005572D01*
X009901Y005730D02*
X011484Y005730D01*
X011533Y005889D02*
X009853Y005889D01*
X009726Y006048D02*
X011677Y006048D01*
X011588Y006365D02*
X009775Y006365D01*
X009874Y006523D02*
X011489Y006523D01*
X011461Y006682D02*
X009901Y006682D01*
X009874Y006840D02*
X011489Y006840D01*
X011588Y006999D02*
X009775Y006999D01*
X009687Y007316D02*
X011636Y007316D01*
X011751Y008109D02*
X010150Y008109D01*
X009992Y008267D02*
X011720Y008267D01*
X012181Y008681D02*
X010181Y008681D01*
X009681Y009181D01*
X007181Y009181D01*
X004181Y012181D01*
X004181Y016181D01*
X003681Y016681D01*
X003061Y016681D01*
X003041Y016701D01*
X002918Y017146D02*
X002475Y017146D01*
X002228Y017146D02*
X000381Y017146D01*
X000381Y017304D02*
X005391Y017304D01*
X005381Y017146D02*
X003165Y017146D01*
X003403Y016987D02*
X005421Y016987D01*
X005527Y016828D02*
X003930Y016828D01*
X003865Y017463D02*
X001498Y017463D01*
X001396Y017420D02*
X001675Y017536D01*
X001890Y017750D01*
X002005Y018030D01*
X002005Y018333D01*
X001890Y018612D01*
X001675Y018827D01*
X001396Y018942D01*
X001093Y018942D01*
X000813Y018827D01*
X000599Y018612D01*
X000483Y018333D01*
X000483Y018030D01*
X000599Y017750D01*
X000813Y017536D01*
X001093Y017420D01*
X001396Y017420D01*
X000991Y017463D02*
X000381Y017463D01*
X000381Y017621D02*
X000728Y017621D01*
X000587Y017780D02*
X000381Y017780D01*
X000381Y017938D02*
X000521Y017938D01*
X000483Y018097D02*
X000381Y018097D01*
X000381Y018255D02*
X000483Y018255D01*
X000517Y018414D02*
X000381Y018414D01*
X000381Y018572D02*
X000583Y018572D01*
X000718Y018731D02*
X000381Y018731D01*
X000381Y018890D02*
X000965Y018890D01*
X001523Y018890D02*
X003839Y018890D01*
X003592Y018731D02*
X001771Y018731D01*
X001906Y018572D02*
X003457Y018572D01*
X003391Y018414D02*
X001972Y018414D01*
X002005Y018255D02*
X003357Y018255D01*
X003357Y018097D02*
X002005Y018097D01*
X001967Y017938D02*
X003395Y017938D01*
X003461Y017780D02*
X001902Y017780D01*
X001760Y017621D02*
X003602Y017621D01*
X004372Y017463D02*
X005457Y017463D01*
X005637Y017621D02*
X004634Y017621D01*
X004776Y017780D02*
X005576Y017780D01*
X005441Y017938D02*
X004841Y017938D01*
X004879Y018097D02*
X005381Y018097D01*
X005381Y018255D02*
X004879Y018255D01*
X004846Y018414D02*
X005437Y018414D01*
X005565Y018572D02*
X004780Y018572D01*
X004873Y016511D02*
X005533Y016511D01*
X005432Y016353D02*
X005020Y016353D01*
X004961Y015243D02*
X010847Y015243D01*
X010689Y015084D02*
X009670Y015084D01*
X009181Y014681D02*
X010681Y014681D01*
X010681Y010681D01*
X010401Y010962D02*
X009811Y010962D01*
X009889Y010804D02*
X010323Y010804D01*
X010303Y010645D02*
X009901Y010645D01*
X009859Y010487D02*
X010353Y010487D01*
X010546Y010328D02*
X009931Y010328D01*
X009582Y011121D02*
X010401Y011121D01*
X010401Y011279D02*
X009673Y011279D01*
X009702Y011291D02*
X009831Y011421D01*
X009901Y011590D01*
X009901Y011773D01*
X009831Y011942D01*
X009702Y012071D01*
X009533Y012141D01*
X008830Y012141D01*
X008661Y012071D01*
X008531Y011942D01*
X008461Y011773D01*
X008461Y011590D01*
X008531Y011421D01*
X008661Y011291D01*
X008830Y011221D01*
X009533Y011221D01*
X009702Y011291D01*
X009838Y011438D02*
X010401Y011438D01*
X010401Y011597D02*
X009901Y011597D01*
X009901Y011755D02*
X010401Y011755D01*
X010401Y011914D02*
X009843Y011914D01*
X009700Y012072D02*
X010401Y012072D01*
X010401Y012231D02*
X009555Y012231D01*
X009533Y012221D02*
X009702Y012291D01*
X009831Y012421D01*
X009901Y012590D01*
X009901Y012773D01*
X009831Y012942D01*
X009702Y013071D01*
X009533Y013141D01*
X008830Y013141D01*
X008661Y013071D01*
X008531Y012942D01*
X008461Y012773D01*
X008461Y012590D01*
X008531Y012421D01*
X008661Y012291D01*
X008830Y012221D01*
X009533Y012221D01*
X009800Y012389D02*
X010401Y012389D01*
X010401Y012548D02*
X009884Y012548D01*
X009901Y012706D02*
X010401Y012706D01*
X010401Y012865D02*
X009863Y012865D01*
X009750Y013023D02*
X010401Y013023D01*
X010401Y013182D02*
X004961Y013182D01*
X004961Y013341D02*
X008612Y013341D01*
X008661Y013291D02*
X008830Y013221D01*
X009533Y013221D01*
X009702Y013291D01*
X009831Y013421D01*
X009901Y013590D01*
X009901Y013773D01*
X009831Y013942D01*
X009702Y014071D01*
X009533Y014141D01*
X008830Y014141D01*
X008661Y014071D01*
X008531Y013942D01*
X008461Y013773D01*
X008461Y013590D01*
X008531Y013421D01*
X008661Y013291D01*
X008499Y013499D02*
X004961Y013499D01*
X004961Y013658D02*
X008461Y013658D01*
X008479Y013816D02*
X004961Y013816D01*
X004961Y013975D02*
X008564Y013975D01*
X008810Y014133D02*
X004961Y014133D01*
X004961Y014292D02*
X008661Y014292D01*
X008519Y014450D02*
X004961Y014450D01*
X004961Y014609D02*
X008461Y014609D01*
X008461Y014767D02*
X004961Y014767D01*
X004961Y014926D02*
X008525Y014926D01*
X008693Y015084D02*
X004961Y015084D01*
X004961Y013023D02*
X008613Y013023D01*
X008500Y012865D02*
X004961Y012865D01*
X005052Y012706D02*
X008461Y012706D01*
X008479Y012548D02*
X005211Y012548D01*
X005369Y012389D02*
X008563Y012389D01*
X008807Y012231D02*
X005528Y012231D01*
X005687Y012072D02*
X008663Y012072D01*
X008520Y011914D02*
X005845Y011914D01*
X006004Y011755D02*
X008461Y011755D01*
X008461Y011597D02*
X006162Y011597D01*
X006321Y011438D02*
X008524Y011438D01*
X008690Y011279D02*
X006479Y011279D01*
X006638Y011121D02*
X008780Y011121D01*
X008552Y010962D02*
X006796Y010962D01*
X006955Y010804D02*
X008474Y010804D01*
X008461Y010645D02*
X007113Y010645D01*
X007272Y010487D02*
X008504Y010487D01*
X010199Y009060D02*
X011649Y009060D01*
X011575Y009377D02*
X011412Y009377D01*
X011624Y010328D02*
X010817Y010328D01*
X011010Y010487D02*
X011504Y010487D01*
X011461Y010645D02*
X011059Y010645D01*
X011040Y010804D02*
X011474Y010804D01*
X011552Y010962D02*
X010961Y010962D01*
X010961Y011121D02*
X011780Y011121D01*
X011690Y011279D02*
X010961Y011279D01*
X010961Y011438D02*
X011524Y011438D01*
X011461Y011597D02*
X010961Y011597D01*
X010961Y011755D02*
X011461Y011755D01*
X011520Y011914D02*
X010961Y011914D01*
X010961Y012072D02*
X011663Y012072D01*
X011807Y012231D02*
X010961Y012231D01*
X010961Y012389D02*
X011563Y012389D01*
X011479Y012548D02*
X010961Y012548D01*
X010961Y012706D02*
X011461Y012706D01*
X011500Y012865D02*
X010961Y012865D01*
X010961Y013023D02*
X011613Y013023D01*
X011752Y013274D02*
X011818Y013252D01*
X011887Y013241D01*
X012181Y013241D01*
X012181Y013681D01*
X011481Y013681D01*
X011481Y013647D01*
X011492Y013578D01*
X011514Y013512D01*
X011545Y013451D01*
X011586Y013395D01*
X011635Y013346D01*
X011691Y013305D01*
X011752Y013274D01*
X011642Y013341D02*
X010961Y013341D01*
X010961Y013499D02*
X011520Y013499D01*
X011481Y013658D02*
X010961Y013658D01*
X010961Y013816D02*
X011503Y013816D01*
X012181Y013816D02*
X012182Y013816D01*
X012181Y013658D02*
X012182Y013658D01*
X012181Y013499D02*
X012182Y013499D01*
X012181Y013341D02*
X012182Y013341D01*
X012181Y013975D02*
X012182Y013975D01*
X010961Y013182D02*
X015286Y013182D01*
X015181Y012681D02*
X015181Y010681D01*
X013864Y009377D02*
X013382Y009377D01*
X013223Y009535D02*
X013741Y009535D01*
X013741Y009694D02*
X013065Y009694D01*
X012906Y009853D02*
X013741Y009853D01*
X015181Y012681D02*
X016181Y013681D01*
X018181Y013681D01*
X018681Y014181D01*
X018681Y017181D01*
X018401Y016511D02*
X016502Y016511D01*
X016372Y016641D02*
X015991Y016641D01*
X015721Y016372D01*
X015721Y015991D01*
X015991Y015721D01*
X016372Y015721D01*
X016641Y015991D01*
X016641Y016372D01*
X016372Y016641D01*
X016641Y016353D02*
X018401Y016353D01*
X018401Y016194D02*
X016641Y016194D01*
X016641Y016036D02*
X018401Y016036D01*
X018401Y015877D02*
X016528Y015877D01*
X015835Y015877D02*
X012773Y015877D01*
X012615Y015719D02*
X018401Y015719D01*
X018401Y015560D02*
X012456Y015560D01*
X012297Y015402D02*
X018401Y015402D01*
X018401Y015243D02*
X012139Y015243D01*
X011681Y015181D02*
X011181Y015181D01*
X010681Y014681D01*
X010401Y014292D02*
X009702Y014292D01*
X009553Y014133D02*
X010401Y014133D01*
X010401Y013975D02*
X009799Y013975D01*
X009884Y013816D02*
X010401Y013816D01*
X010401Y013658D02*
X009901Y013658D01*
X009864Y013499D02*
X010401Y013499D01*
X010401Y013341D02*
X009751Y013341D01*
X011681Y015181D02*
X015181Y018681D01*
X015861Y016511D02*
X013407Y016511D01*
X013249Y016353D02*
X015721Y016353D01*
X015721Y016194D02*
X013090Y016194D01*
X012932Y016036D02*
X015721Y016036D01*
X013682Y013499D02*
X013681Y013499D01*
X013681Y013341D02*
X013682Y013341D01*
X011981Y015877D02*
X011528Y015877D01*
X011641Y016036D02*
X012140Y016036D01*
X012298Y016194D02*
X011641Y016194D01*
X011641Y016353D02*
X012457Y016353D01*
X012615Y016511D02*
X011502Y016511D01*
X010721Y017780D02*
X006787Y017780D01*
X006726Y017621D02*
X007688Y017621D01*
X007656Y017463D02*
X006906Y017463D01*
X006972Y017304D02*
X007656Y017304D01*
X007656Y017146D02*
X006981Y017146D01*
X006942Y016987D02*
X007656Y016987D01*
X007656Y016828D02*
X006836Y016828D01*
X006922Y017938D02*
X010788Y017938D01*
X011181Y018255D02*
X011182Y018255D01*
X009681Y016511D02*
X009682Y016511D01*
X009681Y016353D02*
X009682Y016353D01*
X009681Y016194D02*
X009682Y016194D01*
X009681Y016036D02*
X009682Y016036D01*
X009681Y015877D02*
X009682Y015877D01*
X009363Y015877D02*
X008585Y015877D01*
X008665Y016036D02*
X009241Y016036D01*
X009241Y016194D02*
X008686Y016194D01*
X008657Y016353D02*
X009241Y016353D01*
X008485Y018255D02*
X007906Y018255D01*
X008064Y018414D02*
X008327Y018414D01*
X008241Y018572D02*
X008141Y018572D01*
X008141Y018731D02*
X008241Y018731D01*
X008267Y018890D02*
X008124Y018890D01*
X007965Y019048D02*
X008426Y019048D01*
X001990Y016987D02*
X000381Y016987D01*
X000381Y016828D02*
X001909Y016828D01*
X001894Y016670D02*
X000381Y016670D01*
X000381Y016511D02*
X001900Y016511D01*
X001638Y016353D02*
X000381Y016353D01*
X000381Y016194D02*
X001558Y016194D01*
X001544Y016081D02*
X001544Y016047D01*
X001555Y015979D01*
X001576Y015913D01*
X001607Y015852D01*
X001648Y015796D01*
X001696Y015748D01*
X001752Y015707D01*
X001813Y015676D01*
X001879Y015655D01*
X001947Y015644D01*
X001981Y015644D01*
X001981Y016081D01*
X001544Y016081D01*
X001546Y016036D02*
X000381Y016036D01*
X000381Y015877D02*
X001594Y015877D01*
X001736Y015719D02*
X000381Y015719D01*
X001981Y015719D02*
X001982Y015719D01*
X001981Y015877D02*
X001982Y015877D01*
X001981Y016036D02*
X001982Y016036D01*
X001192Y011438D02*
X002903Y011438D01*
X002813Y011279D02*
X001251Y011279D01*
X001251Y011121D02*
X002803Y011121D01*
X002866Y010962D02*
X001208Y010962D01*
X001110Y010804D02*
X003105Y010804D01*
X003322Y010645D02*
X000877Y010645D01*
X000486Y010645D02*
X000381Y010645D01*
X000381Y010487D02*
X003480Y010487D01*
X003639Y010328D02*
X000381Y010328D01*
X000381Y010170D02*
X003797Y010170D01*
X003901Y010011D02*
X000381Y010011D01*
X000381Y009853D02*
X003901Y009853D01*
X003901Y009694D02*
X001192Y009694D01*
X001251Y009535D02*
X002548Y009535D01*
X002353Y009377D02*
X001251Y009377D01*
X001251Y009218D02*
X002303Y009218D01*
X002322Y009060D02*
X001251Y009060D01*
X001251Y008901D02*
X002401Y008901D01*
X002401Y008743D02*
X001251Y008743D01*
X001085Y008584D02*
X002401Y008584D01*
X002401Y008426D02*
X001197Y008426D01*
X001251Y008267D02*
X002401Y008267D01*
X002409Y008109D02*
X001251Y008109D01*
X001203Y007950D02*
X002517Y007950D01*
X002675Y007791D02*
X001098Y007791D01*
X001036Y007633D02*
X002834Y007633D01*
X002901Y007474D02*
X001177Y007474D01*
X001243Y007316D02*
X002901Y007316D01*
X002901Y007157D02*
X001251Y007157D01*
X001223Y006999D02*
X002901Y006999D01*
X002901Y006840D02*
X001146Y006840D01*
X000964Y006682D02*
X002901Y006682D01*
X002901Y006523D02*
X001146Y006523D01*
X001222Y006365D02*
X002901Y006365D01*
X002901Y006206D02*
X001251Y006206D01*
X001243Y006048D02*
X002901Y006048D01*
X002901Y005889D02*
X001177Y005889D01*
X001037Y005730D02*
X002901Y005730D01*
X002901Y005572D02*
X000381Y005572D01*
X000381Y005413D02*
X002901Y005413D01*
X002901Y005255D02*
X000381Y005255D01*
X000381Y005096D02*
X002901Y005096D01*
X002901Y004938D02*
X000381Y004938D01*
X000381Y004779D02*
X002901Y004779D01*
X002901Y004621D02*
X001251Y004621D01*
X001251Y004462D02*
X002901Y004462D01*
X002901Y004304D02*
X001251Y004304D01*
X001251Y004145D02*
X002901Y004145D01*
X002901Y003986D02*
X001251Y003986D01*
X001251Y003828D02*
X002901Y003828D01*
X002901Y003669D02*
X001192Y003669D01*
X001158Y003511D02*
X002901Y003511D01*
X002901Y003352D02*
X001228Y003352D01*
X001251Y003194D02*
X002901Y003194D01*
X002901Y003035D02*
X001238Y003035D01*
X001172Y002877D02*
X002901Y002877D01*
X002901Y002718D02*
X001024Y002718D01*
X001081Y002560D02*
X002901Y002560D01*
X002901Y002401D02*
X001187Y002401D01*
X001229Y002242D02*
X002901Y002242D01*
X002901Y002084D02*
X001223Y002084D01*
X001168Y001925D02*
X002901Y001925D01*
X002901Y001767D02*
X001045Y001767D01*
X001061Y001608D02*
X002802Y001608D01*
X002676Y001450D02*
X001187Y001450D01*
X001251Y001291D02*
X002611Y001291D01*
X002611Y001133D02*
X001251Y001133D01*
X001285Y000974D02*
X002650Y000974D01*
X002741Y000816D02*
X001443Y000816D01*
X001431Y000431D02*
X000681Y001181D01*
X001431Y000431D02*
X005431Y000431D01*
X006181Y001181D01*
X006181Y001681D01*
X007306Y002806D01*
X007306Y002931D01*
X006846Y002877D02*
X006746Y002877D01*
X006746Y002931D02*
X006307Y002931D01*
X006307Y002932D01*
X006746Y002932D01*
X006746Y003114D01*
X006489Y003371D01*
X006307Y003371D01*
X006307Y002932D01*
X006306Y002932D01*
X006306Y003371D01*
X006124Y003371D01*
X005866Y003114D01*
X005866Y002932D01*
X006306Y002932D01*
X006306Y002931D01*
X006307Y002931D01*
X006307Y002491D01*
X006489Y002491D01*
X006746Y002749D01*
X006746Y002931D01*
X006746Y003035D02*
X006846Y003035D01*
X006918Y003194D02*
X006666Y003194D01*
X006508Y003352D02*
X007077Y003352D01*
X007536Y003352D02*
X008600Y003352D01*
X008494Y003511D02*
X004461Y003511D01*
X004461Y003669D02*
X008461Y003669D01*
X008484Y003828D02*
X004461Y003828D01*
X004461Y003986D02*
X008576Y003986D01*
X008461Y004621D02*
X006817Y004621D01*
X007085Y004779D02*
X008464Y004779D01*
X008530Y004938D02*
X007197Y004938D01*
X007251Y005096D02*
X008721Y005096D01*
X008749Y005255D02*
X007251Y005255D01*
X007202Y005413D02*
X008539Y005413D01*
X008469Y005572D02*
X007097Y005572D01*
X006996Y005730D02*
X008461Y005730D01*
X008510Y005889D02*
X007149Y005889D01*
X006158Y006682D02*
X004461Y006682D01*
X004461Y006840D02*
X006111Y006840D01*
X006111Y006999D02*
X004461Y006999D01*
X004461Y007157D02*
X006111Y007157D01*
X006111Y007316D02*
X004461Y007316D01*
X004461Y007474D02*
X006111Y007474D01*
X006111Y007633D02*
X004461Y007633D01*
X003901Y007633D02*
X003461Y007633D01*
X003461Y007474D02*
X003901Y007474D01*
X003901Y007316D02*
X003461Y007316D01*
X003461Y007157D02*
X003901Y007157D01*
X003901Y006999D02*
X003461Y006999D01*
X003461Y006840D02*
X003901Y006840D01*
X003901Y006682D02*
X003461Y006682D01*
X003461Y006523D02*
X003901Y006523D01*
X003901Y006365D02*
X003461Y006365D01*
X003461Y006206D02*
X003901Y006206D01*
X003901Y006048D02*
X003461Y006048D01*
X003461Y005889D02*
X003901Y005889D01*
X003901Y005730D02*
X003461Y005730D01*
X003461Y005572D02*
X003901Y005572D01*
X003901Y005413D02*
X003461Y005413D01*
X003461Y005255D02*
X003901Y005255D01*
X003901Y005096D02*
X003461Y005096D01*
X003461Y004938D02*
X003901Y004938D01*
X003901Y004779D02*
X003461Y004779D01*
X003461Y004621D02*
X003901Y004621D01*
X003901Y004462D02*
X003461Y004462D01*
X003461Y004304D02*
X003901Y004304D01*
X003901Y004145D02*
X003461Y004145D01*
X003461Y003986D02*
X003901Y003986D01*
X003901Y003828D02*
X003461Y003828D01*
X003461Y003669D02*
X003901Y003669D01*
X003901Y003511D02*
X003461Y003511D01*
X003461Y003352D02*
X003901Y003352D01*
X003901Y003194D02*
X003461Y003194D01*
X003461Y003035D02*
X003901Y003035D01*
X003901Y002877D02*
X003461Y002877D01*
X003461Y002718D02*
X003901Y002718D01*
X003901Y002560D02*
X003461Y002560D01*
X003461Y002401D02*
X003901Y002401D01*
X003901Y002242D02*
X003461Y002242D01*
X003461Y002084D02*
X003901Y002084D01*
X003901Y001925D02*
X003461Y001925D01*
X003461Y001767D02*
X003901Y001767D01*
X003802Y001608D02*
X003561Y001608D01*
X003181Y001181D02*
X003181Y007681D01*
X002681Y008181D01*
X002681Y009181D01*
X002961Y008901D02*
X003901Y008901D01*
X003901Y008743D02*
X002961Y008743D01*
X002961Y008584D02*
X003901Y008584D01*
X003901Y008426D02*
X002961Y008426D01*
X002992Y008267D02*
X003901Y008267D01*
X003901Y008109D02*
X003150Y008109D01*
X003309Y007950D02*
X003901Y007950D01*
X003901Y007791D02*
X003439Y007791D01*
X003040Y009060D02*
X003901Y009060D01*
X003901Y009218D02*
X003059Y009218D01*
X003010Y009377D02*
X003901Y009377D01*
X003901Y009535D02*
X002815Y009535D01*
X004181Y010181D02*
X004181Y001181D01*
X004561Y001608D02*
X004833Y001608D01*
X004701Y001450D02*
X004687Y001450D01*
X004461Y001767D02*
X005914Y001767D01*
X005802Y001608D02*
X005530Y001608D01*
X005662Y001450D02*
X005676Y001450D01*
X005201Y001450D02*
X005161Y001450D01*
X005161Y001608D02*
X005201Y001608D01*
X005201Y001291D02*
X005161Y001291D01*
X004461Y001925D02*
X006029Y001925D01*
X006188Y002084D02*
X004461Y002084D01*
X004461Y002242D02*
X006347Y002242D01*
X006505Y002401D02*
X004461Y002401D01*
X004461Y002560D02*
X006056Y002560D01*
X006124Y002491D02*
X006306Y002491D01*
X006306Y002931D01*
X005866Y002931D01*
X005866Y002749D01*
X006124Y002491D01*
X006306Y002560D02*
X006307Y002560D01*
X006306Y002718D02*
X006307Y002718D01*
X006306Y002877D02*
X006307Y002877D01*
X006306Y003035D02*
X006307Y003035D01*
X006306Y003194D02*
X006307Y003194D01*
X006306Y003352D02*
X006307Y003352D01*
X006105Y003352D02*
X004461Y003352D01*
X004461Y003194D02*
X005947Y003194D01*
X005866Y003035D02*
X004461Y003035D01*
X004461Y002877D02*
X005866Y002877D01*
X005897Y002718D02*
X004461Y002718D01*
X006557Y002560D02*
X006664Y002560D01*
X006715Y002718D02*
X006822Y002718D01*
X006611Y001608D02*
X006561Y001608D01*
X006683Y000657D02*
X006405Y000657D01*
X005894Y000499D02*
X010968Y000499D01*
X010810Y000657D02*
X007680Y000657D01*
X007751Y000816D02*
X010651Y000816D01*
X010493Y000974D02*
X007751Y000974D01*
X010374Y003511D02*
X011494Y003511D01*
X011600Y003352D02*
X010520Y003352D01*
X012182Y005241D02*
X012476Y005241D01*
X012544Y005252D01*
X012610Y005274D01*
X012672Y005305D01*
X012728Y005346D01*
X012777Y005395D01*
X012818Y005451D01*
X012849Y005512D01*
X012871Y005578D01*
X012881Y005647D01*
X012881Y005681D01*
X012182Y005681D01*
X012182Y005241D01*
X012181Y005255D02*
X012182Y005255D01*
X012181Y005413D02*
X012182Y005413D01*
X012181Y005572D02*
X012182Y005572D01*
X012181Y005730D02*
X012182Y005730D01*
X012181Y005889D02*
X012182Y005889D01*
X012181Y006048D02*
X012182Y006048D01*
X012829Y005889D02*
X012901Y005889D01*
X012901Y005730D02*
X012879Y005730D01*
X012868Y005572D02*
X012901Y005572D01*
X012901Y005413D02*
X012790Y005413D01*
X012901Y005255D02*
X012552Y005255D01*
X012642Y005096D02*
X012901Y005096D01*
X012901Y004938D02*
X012833Y004938D01*
X012899Y004779D02*
X012901Y004779D01*
X012901Y004621D02*
X012901Y004621D01*
X012901Y004462D02*
X012848Y004462D01*
X014056Y005413D02*
X014057Y005413D01*
X014056Y005572D02*
X014057Y005572D01*
X009992Y007474D02*
X009830Y007474D01*
X009182Y007474D02*
X009181Y007474D01*
X009181Y007316D02*
X009182Y007316D01*
X009181Y007633D02*
X009182Y007633D01*
X009833Y008426D02*
X010067Y008426D01*
X004181Y010181D02*
X003181Y011181D01*
X011285Y000974D02*
X013578Y000974D01*
X018906Y009853D02*
X019666Y009853D01*
X019666Y010011D02*
X018748Y010011D01*
X018589Y010170D02*
X019666Y010170D01*
X019666Y010328D02*
X018431Y010328D01*
X018457Y011755D02*
X017406Y011755D01*
X017564Y011914D02*
X018299Y011914D01*
X018221Y012072D02*
X017641Y012072D01*
X017641Y012231D02*
X018221Y012231D01*
X018239Y012389D02*
X017624Y012389D01*
X017466Y012548D02*
X018397Y012548D01*
D21*
X015181Y010681D03*
X011181Y009681D03*
X010681Y010681D03*
X009181Y014681D03*
X004681Y016181D03*
X003181Y011181D03*
X002681Y009181D03*
X010181Y003181D03*
M02*
